<?xml version="1.0" encoding="utf-8" standalone="no"?>
<!DOCTYPE svg PUBLIC "-//W3C//DTD SVG 1.1//EN" "http://www.w3.org/Graphics/SVG/1.1/DTD/svg11.dtd">
<svg version="1.1" xmlns="http://www.w3.org/2000/svg" xmlns:xlink="http://www.w3.org/1999/xlink" width="468pt" height="397pt" viewBox="0 0 468 397" xml:space="preserve" enable-background="new 0 0 468 397">
<g transform="scale(0.24,0.24)">
<g>
	<rect x="0" y="0" width="1948.815" height="1653.54" fill="#FFFFFF" fill-opacity="0" />
</g>
<g id="Map_Frame">
<g id="lakes">
<clipPath id="cp_2">
<path d="M1948.815 4.5474735e-13 L9.1789909e-14 4.5474735e-13 L9.1789909e-14 1653.54 L1948.815 1653.54 Z " />
</clipPath>
<g clip-path="url(#cp_2)">
<g transform="matrix(4.1666667 0 0 -4.1666667 974.4075 826.77)">
<path d="M-197.39688 136.02069 L-197.2961 135.39077 L-197.80633 135.36557 L-198.00791 135.1703 L-198.0142 134.93723 L-197.95121 134.42069 L-198.0772 133.95455 L-198.65672 133.02227 L-199.17956 132.52463 L-199.6583 132.26007 L-200.05515 132.15298 L-200.72286 132.17188 L-201.1953 132.37975 L-201.84412 132.95298 L-202.49924 133.5955 L-202.8079 133.87896 L-203.27404 134.09313 L-203.94175 134.10573 L-204.49608 133.96715 L-205.47876 133.99235 L-208.67875 135.1766 L-209.70552 135.08841 L-210.25985 134.94353 L-211.08504 134.96872 L-212.16851 135.74352 L-213.30236 135.8947 L-213.90079 135.74982 L-215.28661 135.27738 L-216.97418 134.79522 L-212.3201 139.76392 L-210.17166 139.70572 L-208.91812 139.51674 L-208.05513 139.29627 L-206.88348 138.87423 L-205.09451 138.08053 L-203.80947 137.57029 L-201.30239 137.19234 L-199.34964 136.62541 L-198.24728 136.51832 L-197.78113 136.34825 L-197.39688 136.02069 Z "  fill="#C2F1FC" fill-rule="evenodd" stroke="#6E6E6E" fill-opacity="1" stroke-opacity="1"  stroke-width="0.7" stroke-linecap="round" stroke-linejoin="round" stroke-miterlimit="10" />
</g>
</g>
<g clip-path="url(#cp_2)">
<g transform="matrix(4.1666667 0 0 -4.1666667 974.4075 826.77)">
<path d="M129.32372 2.8304034 L128.57412 2.5595377 L128.30325 2.754813 L128.07018 3.5800081 L128.65601 3.5800081 L129.28593 3.1453634 L129.32372 2.8304034 Z "  fill="#C2F1FC" fill-rule="evenodd" stroke="#6E6E6E" fill-opacity="1" stroke-opacity="1"  stroke-width="0.7" stroke-linecap="round" stroke-linejoin="round" stroke-miterlimit="10" />
</g>
</g>
<g clip-path="url(#cp_2)">
<g transform="matrix(4.1666667 0 0 -4.1666667 974.4075 826.77)">
<path d="M-5.3027792 -2.215256 L-4.8744338 -2.3034446 L-4.0429392 -2.2089568 L-3.4571137 -2.2656495 L-2.8649888 -2.3223422 L-2.2350687 -2.2593503 L-1.7626287 -2.2719487 L-1.1579056 -3.1538368 L-1.0886144 -3.5506862 L-0.43349752 -4.1554096 L0.92712954 -4.8231246 L2.0168911 -5.1254862 L3.2011408 -4.9995023 L4.6625551 -5.0372974 L6.6594017 -5.3648558 L7.0499521 -5.497139 L7.3523136 -5.8561935 L7.6924703 -6.4609166 L6.8672752 -6.3979247 L5.5444432 -5.7743039 L4.7633424 -5.7113119 L4.0389343 -6.127059 L3.5601951 -6.4672159 L2.6027169 -6.8388686 L2.1302768 -6.9018606 L0.083036787 -6.9648528 L-0.50908791 -6.8703647 L-1.8067233 -6.8766639 L-3.4634129 -7.071939 L-4.4082927 -7.0467424 L-5.4665585 -6.8577663 L-6.5626193 -6.5554047 L-7.3437201 -6.4546174 L-9.4602513 -6.0829647 L-10.241352 -5.7113119 L-11.167334 -5.0121007 L-11.318515 -4.6971407 L-11.639774 -3.4687966 L-11.904341 -3.065648 L-12.332686 -2.8577742 L-12.685442 -2.8073807 L-13.145283 -2.4420272 L-12.817725 -2.0199807 L-12.14371 -1.7995087 L-11.746861 -1.5349422 L-11.658672 -1.3018718 L-11.67757 -0.43258217 L-11.929538 0.32332176 L-12.527962 1.4823745 L-12.546859 2.2319792 L-11.954735 2.4902465 L-11.19883 2.6288289 L-10.49332 2.4902465 L-9.2082832 2.0241057 L-8.320096 1.4508784 L-7.7468689 0.80206099 L-7.4445073 0.20363683 L-6.6886032 -0.95541594 L-5.6555346 -2.0073822 L-5.3027792 -2.215256 Z "  fill="#C2F1FC" fill-rule="evenodd" stroke="#6E6E6E" fill-opacity="1" stroke-opacity="1"  stroke-width="0.7" stroke-linecap="round" stroke-linejoin="round" stroke-miterlimit="10" />
</g>
</g>
<g clip-path="url(#cp_2)">
<g transform="matrix(4.1666667 0 0 -4.1666667 974.4075 826.77)">
<path d="M-24.635024 -0.678251 L-24.244474 -0.72864476 L-23.255499 -0.55856632 L-22.85865 -0.37588943 L-22.184635 -0.38848787 L-21.806683 -0.87352633 L-21.737392 -1.2325806 L-22.058651 -1.6168318 L-23.060224 -2.0640749 L-23.381483 -2.3664368 L-23.425578 -2.6058064 L-23.236602 -2.8829711 L-22.770461 -3.2105295 L-22.109045 -3.3491119 L-21.51692 -3.3617103 L-20.81141 -3.4624976 L-19.677554 -3.8026542 L-18.701178 -3.9916303 L-17.800392 -4.2121023 L-17.327952 -4.2624958 L-17.66181 -4.8420223 L-17.938974 -5.1128878 L-18.738973 -5.4026511 L-19.526373 -5.5790286 L-20.231883 -5.4845408 L-21.554715 -4.741235 L-22.140541 -4.5648574 L-23.860222 -4.2058031 L-24.376757 -4.1932046 L-25.088566 -4.4136766 L-25.718486 -4.3947792 L-26.657067 -4.2498974 L-27.57675 -4.6593454 L-29.30903 -6.1900512 L-32.685402 -7.2042224 L-33.592486 -7.3365055 L-34.537366 -7.3931982 L-35.482246 -7.3239071 L-35.910592 -7.0782382 L-35.92319 -6.2089486 L-36.194056 -5.9317839 L-36.521615 -6.3916255 L-37.510589 -6.5239086 L-38.253894 -6.5428063 L-39.123184 -6.6813886 L-39.633419 -6.5491055 L-40.137355 -6.1018623 L-40.282237 -5.6231231 L-40.17515 -4.7601327 L-39.967277 -4.3695823 L-39.406648 -3.9160399 L-38.770429 -3.695568 L-37.825549 -3.5632846 L-36.049175 -3.5695838 L-35.104294 -3.4750958 L-34.153115 -3.1853326 L-32.288552 -2.7632864 L-30.663358 -2.215256 L-29.435015 -2.0136814 L-28.44604 -1.9191934 L-27.772026 -1.742816 L-27.375176 -1.5160448 L-26.770453 -0.93651828 L-26.127934 -0.48297593 L-25.649195 -0.30029904 L-25.29644 -0.38848787 L-24.635024 -0.678251 Z "  fill="#C2F1FC" fill-rule="evenodd" stroke="#6E6E6E" fill-opacity="1" stroke-opacity="1"  stroke-width="0.7" stroke-linecap="round" stroke-linejoin="round" stroke-miterlimit="10" />
</g>
</g>
<g clip-path="url(#cp_2)">
<g transform="matrix(4.1666667 0 0 -4.1666667 974.4075 826.77)">
<path d="M133.39301 -6.5931998 L133.07805 -6.8262702 L132.6875 -6.7443806 L132.29065 -6.4294208 L132.13947 -6.1144608 L132.17726 -5.7617055 L131.9001 -5.0498958 L131.31427 -4.1050158 L131.20088 -3.7081662 L131.23868 -3.3554111 L131.35836 -3.0782462 L132.29695 -3.9097407 L133.00246 -5.371155 L133.04025 -5.7239104 L133.31742 -6.1585551 L133.39301 -6.5931998 Z "  fill="#C2F1FC" fill-rule="evenodd" stroke="#6E6E6E" fill-opacity="1" stroke-opacity="1"  stroke-width="0.7" stroke-linecap="round" stroke-linejoin="round" stroke-miterlimit="10" />
</g>
</g>
<g clip-path="url(#cp_2)">
<g transform="matrix(4.1666667 0 0 -4.1666667 974.4075 826.77)">
<path d="M-68.452259 -10.870357 L-68.930998 -11.053033 L-69.359344 -10.84516 L-70.247531 -10.385318 L-68.830211 -10.265633 L-67.929426 -10.366421 L-68.452259 -10.870357 Z "  fill="#C2F1FC" fill-rule="evenodd" stroke="#6E6E6E" fill-opacity="1" stroke-opacity="1"  stroke-width="0.7" stroke-linecap="round" stroke-linejoin="round" stroke-miterlimit="10" />
</g>
</g>
<g clip-path="url(#cp_2)">
<g transform="matrix(4.1666667 0 0 -4.1666667 974.4075 826.77)">
<path d="M78.16792 -21.534902 L78.602565 -21.541202 L79.42776 -21.383722 L81.122245 -21.427816 L82.2624 -21.824665 L82.65925 -22.10183 L83.012005 -22.57427 L83.0498 -23.20419 L82.772635 -23.51915 L82.457675 -23.36167 L82.375786 -23.122301 L82.33799 -22.73175 L82.18051 -22.41679 L81.87185 -22.095531 L81.08445 -21.818366 L79.509649 -21.856162 L78.287605 -22.089232 L77.38052 -21.969547 L76.12068 -21.692382 L74.54588 -21.604193 L73.563205 -21.566398 L72.89549 -21.723878 L71.950609 -22.032539 L71.201005 -22.190019 L69.941165 -22.227814 L69.11597 -22.221515 L68.95849 -22.064035 L69.153765 -21.906555 L69.941165 -21.86876 L70.218329 -21.912854 L70.92384 -21.793169 L71.717539 -21.440414 L72.73801 -21.131753 L73.412024 -20.816793 L73.922259 -20.778998 L75.062414 -20.980573 L76.164774 -21.100257 L76.83249 -21.295533 L77.77737 -21.339627 L78.16792 -21.534902 Z "  fill="#C2F1FC" fill-rule="evenodd" stroke="#6E6E6E" fill-opacity="1" stroke-opacity="1"  stroke-width="0.7" stroke-linecap="round" stroke-linejoin="round" stroke-miterlimit="10" />
</g>
</g>
<g clip-path="url(#cp_2)">
<g transform="matrix(4.1666667 0 0 -4.1666667 974.4075 826.77)">
<path d="M0.97752306 -37.081328 L-0.093340877 -37.408886 L0.038942248 -36.942745 L0.51768148 -36.482904 L2.1554735 -35.619913 L3.7491712 -34.908104 L3.9885408 -34.756923 L4.8137359 -33.484485 L5.2546801 -33.138029 L6.6531024 -32.350629 L7.175936 -31.890787 L7.5538879 -31.109686 L7.8625487 -29.74276 L8.1901072 -29.314414 L9.2294753 -28.71599 L9.66412 -28.684494 L10.249946 -28.816777 L10.237347 -29.251422 L9.9538831 -29.717563 L9.223176 -30.44827 L8.5428623 -30.977403 L8.5302641 -31.412048 L8.7192399 -31.733307 L8.908216 -31.897086 L9.1349872 -32.256141 L7.9444383 -32.659289 L7.6231791 -33.005746 L6.5901103 -33.213619 L6.1869617 -33.515981 L5.4562544 -34.561648 L4.7255471 -35.25456 L3.1759439 -35.840385 L2.3381504 -36.249833 L0.97752306 -37.081328 Z "  fill="#C2F1FC" fill-rule="evenodd" stroke="#6E6E6E" fill-opacity="1" stroke-opacity="1"  stroke-width="0.7" stroke-linecap="round" stroke-linejoin="round" stroke-miterlimit="10" />
</g>
</g>
</g>
<!-- Begin_Label-->
<clipPath id="cp_3">
<path d="M1948.815 0 L9.1789909e-14 4.5474735e-13 L9.1789909e-14 1653.54 L1948.815 1653.54 Z " />
</clipPath>
<g clip-path="url(#cp_3)">
<g id="EmbdFile__1" transform="matrix(1 0 0 1 9.1789909e-14 4.5474735e-13)">
<g>
<g transform="scale(1,1)">
</g>
</g>
</g>
</g>
<!-- End_Label-->
</g>
</g>
</svg>
