<?xml version="1.0" encoding="utf-8" standalone="no"?>
<!DOCTYPE svg PUBLIC "-//W3C//DTD SVG 1.1//EN" "http://www.w3.org/Graphics/SVG/1.1/DTD/svg11.dtd">
<svg version="1.1" xmlns="http://www.w3.org/2000/svg" xmlns:xlink="http://www.w3.org/1999/xlink" width="468pt" height="397pt" viewBox="0 0 468 397" xml:space="preserve" enable-background="new 0 0 468 397">
<g transform="scale(0.24,0.24)">
<g>
	<rect x="0" y="0" width="1948.815" height="1653.54" fill="#FFFFFF" fill-opacity="0" />
</g>
<g id="Map_Frame">
<g id="municipalities">
<clipPath id="cp_2">
<path d="M1948.815 4.5474735e-13 L9.1789909e-14 4.5474735e-13 L9.1789909e-14 1653.54 L1948.815 1653.54 Z " />
</clipPath>
<g clip-path="url(#cp_2)">
<g transform="matrix(4.1666667 0 0 -4.1666667 974.4075 826.77)">
<path d="M166.82916 -80.615098 L166.56459 -80.615098 L165.93467 -80.136361 L165.94097 -79.8214 L166.489 -79.8214 L167.03703 -80.21825 L167.11892 -80.615098 L166.82916 -80.615098 Z M164.52365 -79.027701 L164.59924 -79.50014 L163.66066 -79.159984 L163.26381 -79.021402 L163.0897 -78.909559 L162.44166 -78.152112 L162.87956 -78.152112 L163.50318 -78.548962 L164.21499 -78.63085 L164.52365 -79.027701 Z M163.27641 -76.262352 L163.39295 -76.895423 L163.03704 -76.804084 L162.5709 -76.262352 L162.5709 -75.865502 L162.88586 -75.789912 L163.27641 -76.262352 Z M179.68779 -48.684339 L179.87748 -48.686234 L180.45073 -48.677739 L180.48583 -49.081304 L180.6622 -49.613585 L180.12677 -49.515947 L179.81811 -49.358467 L179.34567 -49.358467 L179.33937 -49.830908 L179.42126 -50.145867 L179.42126 -50.416736 L179.61654 -50.813583 L179.18189 -51.008859 L179.02441 -51.204134 L178.86693 -51.676574 L177.95985 -52.58366 L177.68268 -53.13169 L177.48111 -53.13169 L177.1315 -52.955314 L176.7378 -53.207279 L176.34095 -53.28917 L175.67324 -53.169484 L175.47796 -52.967911 L175.71733 -52.224605 L175.91261 -51.827755 L175.87481 -51.594686 L175.67954 -51.393109 L175.44017 -51.393109 L175.24489 -51.588385 L175.08741 -52.023031 L174.92993 -52.18051 L174.69056 -52.256102 L174.57088 -52.772634 L174.33781 -52.690745 L173.86537 -52.337991 L173.31104 -52.331691 L172.99608 -52.451377 L172.17088 -52.092321 L170.91104 -52.167911 L169.84648 -52.086021 L168.9016 -52.363187 L167.95672 -52.753738 L167.40869 -53.263974 L167.01184 -53.421453 L166.5016 -53.774208 L166.14255 -53.774208 L166.10475 -53.497043 L165.94727 -53.339563 L165.63231 -53.301769 L165.12208 -53.534838 L164.37247 -54.517513 L164.29058 -54.794679 L164.44806 -55.185227 L164.48586 -56.249794 L164.1709 -57.194672 L164.1646 -57.749002 L164.47956 -58.378922 L164.83231 -58.731679 L165.34255 -58.851364 L166.24963 -59.60097 L167.03703 -60.035613 L167.82443 -59.922227 L168.21498 -60.161596 L168.96459 -60.753721 L169.59451 -60.829313 L171.16301 -61.150572 L172.50474 -61.824586 L173.21025 -62.492301 L173.95356 -63.399384 L175.67954 -65.219854 L176.54253 -66.322213 L177.21024 -67.424574 L177.95355 -69.005674 L178.46378 -70.265512 L178.46378 -71.367873 L178.73465 -71.922204 L178.77244 -72.274959 L178.21182 -73.660782 L178.79764 -75.159992 L178.86693 -76.186762 L179.1 -77.364711 L178.23071 -78.227701 L177.67008 -80.117461 L177.82126 -80.747382 L178.45118 -81.377302 L178.99922 -81.383602 L179.32698 -81.922725 L177.83245 -82.339666 L177.50001 -82.007223 L176.16458 -82.315882 L175.53466 -82.233995 L173.64489 -81.276516 L172.86379 -81.119036 L172.46694 -81.509585 L172.30317 -82.057615 L172.69371 -82.611945 L173.79608 -83.248164 L173.81248 -83.367072 L173.26554 -83.506595 L173.05548 -83.562937 L171.8396 -83.868642 L171.35829 -82.448165 L170.49529 -81.578877 L170.53939 -81.389899 L170.74096 -80.476518 L170.26852 -79.607226 L169.25435 -78.498567 L168.46695 -78.10172 L167.67955 -78.095419 L166.81026 -78.643449 L165.63231 -78.63715 L165.31735 -78.322191 L165.32365 -76.74739 L164.38507 -75.638731 L163.3646 -74.851331 L162.11106 -74.057633 L161.87169 -74.290703 L161.86539 -75.311172 L161.24177 -74.996212 L159.98823 -73.730074 L159.38351 -73.452908 L157.63863 -71.55055 L156.37879 -70.051341 L155.79296 -69.459216 L153.9095 -67.487568 L153.67013 -67.172607 L151.85697 -65.179185 L151.86702 -64.795622 L151.95833 -61.836331 L159.62672 -61.857187 L159.65504 -58.825089 L159.74818 -48.999824 L159.75086 -48.746335 L159.75083 -48.444494 L179.68779 -48.684339 Z "  fill="#8DD3C7" fill-rule="evenodd" stroke="#6E6E6E" fill-opacity="1" stroke-opacity="1"  stroke-width="0.7" stroke-linecap="round" stroke-linejoin="round" stroke-miterlimit="10" />
</g>
</g>
<g clip-path="url(#cp_2)">
<g transform="matrix(4.1666667 0 0 -4.1666667 974.4075 826.77)">
<path d="M149.50676 -136.77557 L149.27666 -147.00464 L148.32367 -147.16801 L148.19068 -148.70235 L147.01189 -148.90315 L147.11785 -152.11313 L149.24927 -152.14673 L149.20846 -157.54848 L147.12708 -157.76894 L146.71562 -160.26738 L145.07489 -159.50158 L144.76427 -159.85884 L143.66082 -161.83145 L144.64934 -162.30167 L141.95174 -161.81828 L141.26872 -162.86718 L140.89767 -162.771 L140.34112 -163.38743 L139.51389 -164.41474 L139.37106 -164.58823 L139.42704 -165.41522 L137.04246 -165.26618 L137.36614 -167.52409 L136.92466 -168.87147 L136.86398 -169.88065 L136.85456 -173.25464 L139.19515 -173.29396 L139.2418 -178.30309 L142.33388 -178.39469 L120.22918 -187.54356 L23.504551 -99.24421 L23.590004 -98.035772 L25.994336 -97.9534 L26.011214 -98.255503 L26.033656 -99.391132 L26.890332 -99.534385 L26.816551 -100.01659 L28.034192 -99.97798 L28.171691 -99.973642 L29.192769 -99.941293 L29.309817 -100.59501 L31.839526 -100.62538 L32.334038 -94.272313 L32.450425 -94.259255 L34.607928 -94.426333 L34.61179 -94.642803 L34.49232 -95.658756 L36.927844 -95.572576 L37.039645 -98.908603 L38.163363 -98.788486 L38.417753 -101.50317 L39.308901 -101.43019 L39.283896 -102.19674 L39.968494 -102.08653 L39.958433 -102.80777 L40.470787 -102.87865 L40.728531 -103.5798 L40.85444 -103.64669 L44.738756 -103.42672 L44.690502 -104.11521 L45.335851 -104.2768 L45.645837 -105.51231 L46.596501 -105.47778 L46.70949 -106.21682 L47.338545 -106.292 L47.383926 -106.81649 L47.999744 -107.08408 L47.82895 -108.00061 L48.668836 -108.85116 L51.921118 -108.84163 L52.074023 -110.28435 L54.005192 -110.07244 L54.04724 -108.2962 L59.163978 -108.04506 L59.385767 -108.5684 L59.389585 -115.65675 L65.879044 -116.03157 L66.667377 -116.04477 L70.527819 -116.12368 L78.832963 -116.30663 L78.845358 -120.55509 L81.884893 -120.73262 L81.862349 -128.29814 L90.885746 -128.41752 L91.033159 -127.885 L93.84887 -128.00266 L93.982938 -129.66062 L113.9085 -129.80591 L113.93329 -132.16001 L116.62697 -132.20505 L116.62878 -134.44892 L124.21579 -134.35861 L124.33279 -132.13713 L132.51133 -132.01403 L132.71538 -132.01073 L136.35359 -131.95566 L136.43798 -133.03603 L136.45559 -133.23628 L136.78088 -137.21492 L137.08199 -137.20393 L149.50676 -136.77557 Z "  fill="#FFFFB3" fill-rule="evenodd" stroke="#6E6E6E" fill-opacity="1" stroke-opacity="1"  stroke-width="0.7" stroke-linecap="round" stroke-linejoin="round" stroke-miterlimit="10" />
</g>
</g>
<g clip-path="url(#cp_2)">
<g transform="matrix(4.1666667 0 0 -4.1666667 974.4075 826.77)">
<path d="M220.43535 -141.11261 L222.23062 -143.95356 L223.16602 -144.95346 L221.97835 -145.44461 L219.47787 -142.92049 L218.92984 -142.75671 L218.92984 -143.07167 L221.34479 -145.70662 L220.86177 -145.90637 L219.54717 -144.4134 L218.23693 -143.36143 L217.27315 -142.59293 L217.12197 -142.27797 L217.27945 -142.12049 L218.06055 -142.51734 L218.4574 -142.20238 L218.07315 -140.31262 L217.37394 -138.97089 L217.84638 -138.73782 L218.59284 -138.86065 L219.99441 -140.57089 L220.43535 -141.11261 Z M216.82591 -137.47168 L216.51095 -137.94412 L216.27473 -137.77404 L215.88733 -136.99294 L215.81174 -136.36302 L216.1267 -136.21184 L216.75662 -136.76617 L216.82591 -137.47168 Z M213.61332 -135.56932 L213.68261 -136.35672 L213.44954 -136.35042 L212.99285 -135.66696 L212.51096 -134.46066 L212.59285 -133.98822 L212.9834 -134.46066 L213.61332 -135.56932 Z M174.56458 -86.479654 L174.24962 -86.712723 L173.54411 -86.315876 L172.76301 -85.604065 L172.13309 -84.734776 L171.8396 -83.868642 L173.05548 -83.562937 L173.26554 -83.506595 L173.81248 -83.367072 L173.87166 -83.796195 L173.31734 -84.741075 L173.55041 -85.370995 L174.34726 -86.029261 L174.56458 -86.479654 Z M179.46535 -82.643442 L179.23228 -82.88281 L178.12992 -82.637143 L177.83245 -82.339666 L179.32698 -81.922725 L179.46535 -82.643442 Z M162.44166 -78.152112 L163.0897 -78.909559 L162.40082 -78.467073 L162.44166 -78.152112 Z M159.49689 -75.600936 L159.18193 -75.752117 L158.40083 -75.197786 L157.22288 -74.013537 L157.0654 -73.698577 L157.0276 -73.421411 L155.98194 -72.02299 L154.88588 -70.876537 L154.7284 -70.643467 L154.53312 -70.089136 L153.67013 -69.182051 L152.95832 -68.508036 L152.60557 -67.802527 L151.19455 -66.454496 L150.99927 -65.982057 L151.15675 -65.748987 L151.50951 -65.748987 L151.86226 -66.026151 L153.04021 -67.563157 L153.31738 -68.079693 L154.06068 -68.747408 L154.65281 -69.339532 L155.39611 -70.643467 L157.43705 -73.427713 L157.77721 -74.013537 L158.79768 -74.889127 L159.49689 -75.600936 Z M-11.691992 -66.267986 L-11.700519 -67.171592 L-14.12433 -64.961204 L-11.679251 -64.996256 L-11.691992 -66.267986 Z M134.68434 -58.498609 L134.67832 -58.878022 L134.54628 -58.564314 L134.41218 -58.226448 L134.68434 -58.498609 Z M156.4776 -33.181853 L172.88314 -33.510472 L173.10468 -33.49452 L174.25606 -33.51113 L174.71977 -33.510582 L176.16521 -33.553151 L176.30946 -33.755351 L177.09371 -34.561649 L177.25434 -34.227791 L177.44961 -34.108105 L177.80867 -34.227791 L178.55197 -34.864009 L178.47008 -35.412039 L178.66536 -35.689205 L178.94252 -36.28133 L179.96299 -37.22621 L179.96299 -37.578965 L180.08268 -37.938019 L180.00079 -38.17109 L179.56614 -38.17109 L178.97402 -38.290774 L178.70315 -38.486049 L178.65906 -38.801009 L179.21339 -39.153764 L180.27165 -40.218329 L180.97716 -41.08762 L181.01496 -41.40258 L180.85748 -41.717539 L180.85748 -42.114388 L181.28582 -42.624624 L183.0559 -43.298639 L184.27794 -43.575802 L184.6685 -43.739583 L184.98346 -44.054543 L185.02125 -44.445094 L184.90157 -44.804148 L184.86377 -45.314383 L184.74408 -45.749027 L184.74408 -46.416743 L184.42913 -47.046663 L184.11416 -47.204143 L183.40235 -47.197844 L182.69684 -46.845089 L182.49527 -46.958474 L182.38188 -47.160048 L181.75197 -47.311229 L181.4307 -47.512803 L181.35511 -47.783668 L181.4307 -48.256108 L181.27323 -48.413589 L180.60551 -48.413589 L180.45073 -48.677739 L179.87748 -48.686234 L179.68779 -48.684339 L159.75083 -48.444494 L159.75086 -48.746335 L159.74818 -48.999824 L159.65504 -58.825089 L159.62672 -61.857187 L151.95833 -61.836331 L151.86702 -64.795622 L151.85697 -65.179185 L151.51581 -64.804108 L151.20084 -64.684421 L150.7284 -64.722217 L150.41344 -65.074973 L150.21187 -65.074973 L149.34888 -64.520644 L145.85282 -61.799388 L145.38039 -61.522223 L144.71267 -60.967895 L144.24653 -60.715927 L143.81188 -60.489156 L143.33944 -59.89703 L142.94889 -59.267109 L142.63393 -58.989944 L141.65126 -58.360024 L140.86386 -57.572626 L140.12055 -56.741131 L139.7678 -55.796252 L139.57252 -55.600976 L139.01819 -55.871842 L138.74103 -55.437197 L137.87804 -55.241922 L137.17253 -55.317512 L136.65914 -55.081292 L136.85757 -54.68759 L137.09064 -54.486019 L136.81977 -53.937986 L136.81977 -53.188382 L136.5867 -53.030903 L136.42922 -53.150588 L136.07017 -53.856098 L135.75521 -54.089168 L135.52214 -54.208854 L135.35836 -54.486019 L134.97186 -54.421156 L134.16391 -53.836952 L130.79077 -53.851935 L130.77438 -54.078658 L130.7168 -55.130606 L130.72556 -63.586542 L135.34642 -63.674546 L135.64451 -63.711514 L135.45066 -62.209224 L135.40079 -61.953741 L135.41125 -61.638009 L135.27101 -60.858013 L135.18424 -60.449841 L135.46544 -60.193093 L137.00245 -60.237187 L137.393 -60.161596 L137.98512 -60.161596 L138.45756 -60.319077 L138.81032 -60.678131 L138.9237 -61.188366 L138.60874 -61.698601 L138.51898 -62.221437 L138.60874 -62.845055 L139.03709 -63.273402 L139.29536 -63.27655 L139.20087 -62.725372 L139.7489 -62.252932 L140.06386 -62.095452 L140.41661 -62.215135 L140.69378 -62.769464 L141.08433 -63.046629 L141.36149 -63.481275 L141.63866 -63.676549 L142.26228 -63.953715 L143.03078 -64.665524 L143.83708 -65.41513 L145.13471 -66.20883 L145.9977 -67.034023 L146.42605 -67.550559 L147.09377 -69.005674 L147.56621 -69.478114 L148.54039 -69.484262 L148.31834 -69.676641 L147.73648 -69.672059 L147.37488 -69.665317 L146.69278 -69.683436 L146.19719 -69.668215 L146.07026 -70.321283 L145.87687 -70.351382 L145.81359 -70.660934 L146.28603 -70.85589 L146.2998 -71.050732 L146.04979 -71.265799 L146.11143 -71.401636 L146.16097 -71.674604 L144.3646 -71.702536 L144.24639 -72.039495 L144.05186 -72.15186 L143.81027 -72.20698 L143.44855 -72.208601 L143.43998 -72.651814 L143.36124 -73.441615 L142.11311 -73.427845 L141.31512 -73.419018 L140.75628 -73.410024 L140.7382 -73.794304 L141.03485 -74.510292 L138.86058 -74.444347 L139.00491 -76.628176 L139.03753 -77.009519 L139.27932 -79.466158 L143.21584 -79.39022 L143.28262 -79.617628 L143.28155 -87.375116 L143.84387 -87.381301 L152.26227 -87.497344 L154.7871 -87.532106 L154.69015 -95.617657 L159.72981 -95.740442 L159.64605 -100.67119 L161.91915 -100.65794 L164.83418 -100.64282 L164.77867 -96.354569 L164.77354 -96.138468 L164.76899 -95.910819 L164.74885 -95.141664 L164.72135 -94.726793 L165.07751 -95.01692 L165.12826 -94.835364 L165.16232 -93.597562 L165.41475 -93.157587 L165.94727 -93.36468 L167.98821 -95.65759 L169.08427 -96.526878 L170.73466 -96.772547 L171.44018 -97.251286 L171.69844 -98.838686 L171.82442 -99.613485 L172.37246 -100.08593 L172.52994 -99.934746 L172.30946 -99.134748 L172.22128 -98.826085 L172.37875 -98.511126 L172.8512 -98.517425 L174.03544 -98.838686 L179.60394 -102.25285 L180.23386 -102.80718 L180.62441 -103.4371 L181.4874 -104.30639 L182.42598 -105.0182 L183.0559 -105.65442 L184.14566 -108.09851 L184.92676 -109.12528 L185.07794 -110.30953 L185.54408 -111.25441 L185.85274 -112.51425 L186.71573 -113.23235 L188.03857 -115.83393 L188.5866 -116.70322 L189.76455 -117.72999 L190.65273 -118.24022 L191.08647 -118.49632 L189.22698 -118.48981 L188.18892 -118.48815 L187.2775 -118.46318 L187.03049 -118.48179 L186.83738 -118.461 L185.21957 -118.29882 L185.06491 -118.2861 L177.59582 -118.26603 L167.01228 -118.19557 L167.01611 -130.75705 L167.01758 -143.60419 L165.24696 -143.51378 L165.06935 -142.29621 L163.99854 -142.26619 L163.75686 -142.50949 L163.8188 -142.99124 L163.82183 -146.43188 L162.7582 -146.4103 L162.7049 -146.78371 L162.59685 -147.51476 L159.46808 -147.35069 L159.50654 -146.41618 L159.2095 -146.16515 L158.2918 -146.01122 L158.19748 -143.9233 L159.47807 -143.76592 L159.262 -140.16756 L162.26714 -140.10592 L162.35938 -139.71681 L161.19769 -138.6304 L159.09479 -136.66916 L158.8034 -136.39507 L149.50676 -136.77557 L137.08199 -137.20393 L136.78088 -137.21492 L136.45559 -133.23628 L136.43798 -133.03603 L136.35359 -131.95566 L132.71538 -132.01073 L132.51133 -132.01403 L124.33279 -132.13713 L124.21579 -134.35861 L116.62878 -134.44892 L116.62697 -132.20505 L113.93329 -132.16001 L113.9085 -129.80591 L93.982938 -129.66062 L93.84887 -128.00266 L91.033159 -127.885 L90.885746 -128.41752 L81.862349 -128.29814 L81.884893 -120.73262 L78.845358 -120.55509 L78.832963 -116.30663 L70.527819 -116.12368 L66.667377 -116.04477 L65.879044 -116.03157 L59.389585 -115.65675 L59.385767 -108.5684 L59.163978 -108.04506 L54.04724 -108.2962 L54.005192 -110.07244 L52.074023 -110.28435 L51.921118 -108.84163 L48.668836 -108.85116 L47.82895 -108.00061 L47.999744 -107.08408 L47.383926 -106.81649 L47.338545 -106.292 L46.70949 -106.21682 L46.596501 -105.47778 L45.645837 -105.51231 L45.335851 -104.2768 L44.690502 -104.11521 L44.738756 -103.42672 L40.85444 -103.64669 L40.728531 -103.5798 L40.470787 -102.87865 L39.958433 -102.80777 L39.968494 -102.08653 L39.283896 -102.19674 L39.308901 -101.43019 L38.417753 -101.50317 L38.163363 -98.788486 L37.039645 -98.908603 L36.927844 -95.572576 L34.49232 -95.658756 L34.61179 -94.642803 L34.607928 -94.426333 L32.450425 -94.259255 L32.334038 -94.272313 L31.839526 -100.62538 L29.309817 -100.59501 L29.192769 -99.941293 L28.171691 -99.973642 L28.034192 -99.97798 L26.816551 -100.01659 L26.890332 -99.534385 L26.033656 -99.391132 L26.011214 -98.255503 L25.994336 -97.9534 L23.590004 -98.035772 L23.504551 -99.24421 L-8.3791229 -70.200595 L-4.1375534 -70.220674 L-4.0372229 -69.624065 L5.1686669 -69.971087 L5.1118075 -71.645569 L6.4021617 -71.659257 L9.6569787 -71.707704 L13.580065 -71.767096 L14.560475 -71.782921 L14.712175 -72.968801 L20.678211 -73.00272 L20.737667 -74.716017 L20.175612 -74.92427 L20.187218 -77.265113 L20.579663 -77.345055 L20.586737 -78.317986 L20.593115 -79.084996 L20.597012 -80.022863 L20.594262 -80.466163 L20.578037 -81.107477 L20.974173 -81.190267 L21.015446 -82.476064 L21.022172 -82.711489 L21.032081 -83.013496 L22.150743 -82.989783 L22.330938 -84.872907 L24.422348 -84.97804 L25.069765 -84.623865 L25.207921 -84.623051 L26.333621 -84.625918 L27.402631 -84.627937 L27.674882 -84.287251 L29.39224 -83.951097 L29.54605 -82.539934 L31.508766 -82.544058 L31.521029 -79.442273 L30.326787 -79.34474 L30.279288 -77.987437 L29.175771 -77.931078 L29.312237 -76.023099 L31.713715 -76.033481 L31.840632 -72.029833 L28.873994 -71.98757 L29.074184 -69.038337 L30.091925 -68.692166 L30.672764 -68.609392 L30.618472 -69.736227 L35.665185 -69.596917 L35.667719 -69.155716 L36.885933 -69.031393 L37.028728 -68.37925 L38.498374 -68.591782 L38.507598 -69.709008 L39.07255 -69.77295 L39.191268 -70.608056 L41.179121 -70.742977 L41.503944 -72.168556 L42.417573 -72.181268 L42.606715 -67.690313 L41.545208 -67.915771 L41.435529 -67.487016 L40.832088 -67.377049 L40.761145 -66.913813 L39.664546 -66.914606 L39.404843 -67.397032 L38.777072 -66.919343 L38.059896 -66.280002 L37.745 -65.9338 L37.601192 -65.675443 L37.718607 -64.811079 L39.064242 -65.594406 L39.163968 -64.756753 L41.020885 -64.940285 L41.197825 -65.599701 L41.860212 -65.7427 L41.919649 -66.040485 L43.470939 -66.09146 L43.577191 -66.917972 L43.978466 -66.854199 L44.163223 -67.220252 L44.684189 -67.430574 L44.677976 -67.879425 L45.359366 -67.918264 L45.552742 -67.928641 L45.777446 -67.939448 L46.075646 -67.732754 L46.501695 -67.676998 L46.61064 -68.464315 L48.214004 -68.673377 L48.280673 -69.186964 L48.859253 -69.063936 L48.849359 -69.78518 L49.961457 -69.936991 L49.960635 -71.680546 L49.96476 -72.28817 L53.567253 -72.334485 L53.556514 -73.125052 L54.070126 -73.140429 L54.228217 -73.919977 L57.187329 -74.016014 L57.255001 -75.491892 L60.432334 -75.339162 L60.378761 -74.865701 L61.033118 -74.834532 L61.060706 -74.356554 L62.49477 -74.119361 L62.527586 -72.45224 L61.479883 -72.438261 L59.409819 -72.410551 L59.26163 -66.937324 L56.862404 -66.811188 L56.921062 -63.761188 L53.992731 -63.531755 L54.018787 -59.305392 L51.455773 -59.372049 L51.4187 -54.092157 L52.700114 -53.679606 L52.96671 -53.955681 L53.525207 -53.968881 L53.904186 -53.770924 L54.29503 -53.682384 L54.538778 -53.878292 L55.486305 -53.698533 L55.720597 -54.049088 L56.127873 -54.073506 L56.734453 -54.175552 L57.167668 -54.359994 L57.396993 -54.533976 L57.804801 -54.24602 L58.542723 -53.726477 L59.049298 -53.455944 L59.141636 -53.096495 L59.037886 -52.72881 L59.152931 -52.53005 L59.642034 -52.46168 L60.086869 -52.053731 L60.480138 -51.815975 L60.763806 -51.370841 L61.035375 -51.003282 L61.328059 -50.950468 L61.730721 -51.041997 L62.254857 -51.003473 L63.013204 -50.772661 L63.590992 -50.647287 L64.200629 -50.516024 L64.873976 -50.337972 L65.425194 -49.853627 L66.004554 -49.885818 L66.641311 -50.070035 L67.574145 -49.681749 L68.228565 -49.626647 L68.919079 -49.7506 L69.57243 -49.75919 L70.302749 -49.798194 L70.7533 -49.996001 L71.342427 -50.337789 L71.837744 -50.881447 L72.305756 -51.365908 L72.931163 -51.895137 L73.513314 -52.281621 L73.892815 -53.059058 L74.331103 -53.425446 L74.668518 -53.403216 L75.070453 -53.306884 L75.76381 -53.502873 L76.402698 -53.815803 L77.173255 -53.991051 L77.919377 -54.168769 L78.458592 -54.319992 L79.120178 -54.518305 L79.863128 -54.944567 L80.249397 -55.243674 L80.785914 -55.319891 L81.223269 -55.766717 L81.765444 -55.941739 L82.288229 -56.012152 L83.054914 -56.243948 L83.545354 -56.359453 L84.224567 -56.552989 L84.814752 -56.830126 L85.346648 -57.309615 L86.18098 -57.731996 L86.667215 -57.927243 L86.880347 -58.010478 L87.03939 -57.927045 L87.396895 -57.738962 L87.853965 -57.435174 L88.421504 -57.575394 L89.238793 -57.414793 L89.519424 -52.163577 L93.975346 -52.104433 L94.138091 -52.867739 L97.899693 -52.949327 L100.10193 -51.039242 L101.75321 -52.745192 L104.55145 -50.617996 L105.51689 -50.979874 L106.78253 -51.195477 L107.73288 -51.437353 L108.99309 -51.724244 L109.92214 -51.900672 L110.8854 -52.144716 L111.75166 -52.876417 L112.20177 -53.402839 L112.56604 -53.791665 L113.06322 -53.963563 L113.71579 -54.043453 L116.66073 -54.299603 L117.2688 -55.460929 L120.6929 -55.63483 L120.94031 -54.916368 L120.86797 -46.94916 L124.0211 -47.071266 L130.00273 -47.359943 L130.28155 -47.378531 L130.33629 -46.898025 L130.36943 -46.576247 L130.3744 -46.40939 L130.42879 -46.135013 L130.40732 -45.878443 L130.41472 -45.229316 L130.43654 -44.567046 L130.42285 -44.374997 L130.47891 -42.99107 L129.18988 -42.984054 L129.26938 -37.885101 L130.45982 -37.882588 L130.72414 -32.866274 L149.55357 -33.133962 L156.4776 -33.181853 Z "  fill="#BEBADA" fill-rule="evenodd" stroke="#6E6E6E" fill-opacity="1" stroke-opacity="1"  stroke-width="0.7" stroke-linecap="round" stroke-linejoin="round" stroke-miterlimit="10" />
</g>
</g>
<g clip-path="url(#cp_2)">
<g transform="matrix(4.1666667 0 0 -4.1666667 974.4075 826.77)">
<path d="M167.01758 -143.60419 L166.77171 -155.50264 L166.7062 -168.30921 L142.33388 -178.39469 L139.2418 -178.30309 L139.19515 -173.29396 L136.85456 -173.25464 L136.86398 -169.88065 L136.92466 -168.87147 L137.36614 -167.52409 L137.04246 -165.26618 L139.42704 -165.41522 L139.37106 -164.58823 L139.51389 -164.41474 L140.34112 -163.38743 L140.89767 -162.771 L141.26872 -162.86718 L141.95174 -161.81828 L144.64934 -162.30167 L143.66082 -161.83145 L144.76427 -159.85884 L145.07489 -159.50158 L146.71562 -160.26738 L147.12708 -157.76894 L149.20846 -157.54848 L149.24927 -152.14673 L147.11785 -152.11313 L147.01189 -148.90315 L148.19068 -148.70235 L148.32367 -147.16801 L149.27666 -147.00464 L149.50676 -136.77557 L158.8034 -136.39507 L159.09479 -136.66916 L161.19769 -138.6304 L162.35938 -139.71681 L162.26714 -140.10592 L159.262 -140.16756 L159.47807 -143.76592 L158.19748 -143.9233 L158.2918 -146.01122 L159.2095 -146.16515 L159.50654 -146.41618 L159.46808 -147.35069 L162.59685 -147.51476 L162.7049 -146.78371 L162.7582 -146.4103 L163.82183 -146.43188 L163.8188 -142.99124 L163.75686 -142.50949 L163.99854 -142.26619 L165.06935 -142.29621 L165.24696 -143.51378 L167.01758 -143.60419 Z "  fill="#FB8072" fill-rule="evenodd" stroke="#6E6E6E" fill-opacity="1" stroke-opacity="1"  stroke-width="0.7" stroke-linecap="round" stroke-linejoin="round" stroke-miterlimit="10" />
</g>
</g>
<g clip-path="url(#cp_2)">
<g transform="matrix(4.1666667 0 0 -4.1666667 974.4075 826.77)">
<path d="M165.41475 -93.157587 L165.16232 -93.597562 L165.12826 -94.835364 L165.07751 -95.01692 L164.72135 -94.726793 L164.74885 -95.141664 L164.76899 -95.910819 L164.77354 -96.138468 L164.77867 -96.354569 L164.83418 -100.64282 L161.91915 -100.65794 L159.64605 -100.67119 L159.72981 -95.740442 L154.69015 -95.617657 L154.7871 -87.532106 L152.26227 -87.497344 L143.84387 -87.381301 L143.28155 -87.375116 L143.28262 -79.617628 L143.21584 -79.39022 L139.27932 -79.466158 L139.03753 -77.009519 L139.00491 -76.628176 L138.86058 -74.444347 L141.03485 -74.510292 L140.7382 -73.794304 L140.75628 -73.410024 L141.31512 -73.419018 L142.11311 -73.427845 L143.36124 -73.441615 L143.43998 -72.651814 L143.44855 -72.208601 L143.81027 -72.20698 L144.05186 -72.15186 L144.24639 -72.039495 L144.3646 -71.702536 L146.16097 -71.674604 L146.11143 -71.401636 L146.04979 -71.265799 L146.2998 -71.050732 L146.28603 -70.85589 L145.81359 -70.660934 L145.87687 -70.351382 L146.07026 -70.321283 L146.19719 -69.668215 L146.69278 -69.683436 L147.37488 -69.665317 L147.73648 -69.672059 L148.31834 -69.676641 L148.54039 -69.484262 L148.70636 -69.484411 L148.98353 -69.837169 L149.49376 -69.723783 L149.72683 -69.799372 L149.84652 -70.000948 L149.56935 -70.391497 L149.56935 -70.624568 L149.84652 -70.942678 L149.56935 -71.418266 L149.56935 -71.733227 L149.76463 -71.890706 L150.39455 -71.733227 L151.18195 -71.733227 L152.41029 -73.364721 L151.5599 -73.767869 L151.71738 -74.082829 L152.3473 -74.164717 L152.42289 -74.55527 L152.10793 -74.952118 L152.10163 -75.342668 L153.71423 -76.646604 L154.06698 -76.930067 L154.61501 -77.087547 L155.16934 -76.936368 L156.18852 -76.079759 L156.55435 -76.469341 L156.33469 -79.537936 L156.32839 -81.112735 L156.79453 -82.611945 L157.96619 -84.268636 L158.35674 -85.056036 L157.79611 -85.843436 L157.878 -86.315876 L158.42603 -86.870204 L159.4465 -87.191464 L159.91894 -87.663905 L160.45437 -89.635554 L161.15988 -90.347364 L161.90949 -90.873347 L162.5709 -91.852872 L163.20082 -92.363108 L163.74885 -92.804051 L164.9268 -92.96783 L165.41475 -93.157587 Z "  fill="#80B1D3" fill-rule="evenodd" stroke="#6E6E6E" fill-opacity="1" stroke-opacity="1"  stroke-width="0.7" stroke-linecap="round" stroke-linejoin="round" stroke-miterlimit="10" />
</g>
</g>
<g clip-path="url(#cp_2)">
<g transform="matrix(4.1666667 0 0 -4.1666667 974.4075 826.77)">
<path d="M109.8466 22.017766 L109.68912 21.898082 L109.41825 22.017766 L109.22298 22.332727 L109.29857 22.534301 L109.53793 22.528002 L109.69541 22.414617 L109.8466 22.017766 Z M108.66865 22.534301 L108.70644 22.294932 L108.32219 22.392568 L107.61038 22.93115 L107.52849 23.246109 L107.68597 23.40359 L107.88755 23.441385 L108.15526 23.350047 L108.66865 22.534301 Z M109.26077 23.063433 L109.0277 23.00674 L108.87022 23.3217 L108.87022 23.516976 L109.20408 23.576817 L109.26077 23.063433 Z M108.19621 23.787841 L107.76786 23.718551 L107.37101 23.79414 L107.21983 23.95162 L107.37731 24.109099 L107.88755 24.228786 L108.24345 24.187842 L108.35999 23.95162 L108.19621 23.787841 Z M109.85605 24.181541 L109.65762 23.945323 L109.42455 24.065007 L109.38045 24.342172 L109.65762 24.379968 L109.85605 24.181541 Z M115.12533 23.542173 L115.3647 23.381542 L115.44029 23.737449 L115.55997 24.090204 L115.64186 24.600439 L116.23398 24.600439 L116.46705 24.524847 L116.70643 24.046109 L116.85761 22.748473 L117.01509 22.036664 L117.09068 21.406744 L116.97099 21.016194 L116.9332 20.581548 L117.04658 20.071315 L117.12532 19.557928 L117.20406 19.088638 L117.08438 18.931159 L116.45446 18.811472 L115.23241 18.817774 L114.80407 18.975255 L112.36628 20.159502 L111.77415 20.518558 L111.22612 21.066588 L110.98675 21.230367 L110.32533 22.723277 L110.20565 23.195717 L110.24975 23.510676 L110.42612 23.573669 L110.71589 22.761071 L110.95526 22.408317 L111.27022 22.250836 L111.73636 21.898082 L112.171 21.658711 L112.64344 21.658711 L112.9584 21.816191 L113.43084 22.483906 L114.06706 23.189419 L114.45761 23.89493 L114.58045 24.66343 L114.97415 24.247685 L115.12533 23.542173 Z M118.65288 24.98784 L118.4765 24.833509 L118.28123 24.909099 L118.28123 25.268155 L118.63398 25.261855 L118.65288 24.98784 Z M117.29855 24.871303 L117.05918 24.833509 L116.82611 24.953195 L116.70643 25.387838 L116.51115 25.822483 L116.51115 26.137444 L116.82611 26.093349 L117.38044 25.822483 L117.80879 25.702798 L117.86863 25.384687 L117.29855 24.871303 Z M125.5694 26.824058 L126.09538 26.389412 L125.84657 27.768934 L125.49381 28.436651 L123.25759 31.51696 L123.06232 32.184675 L123.10011 32.461841 L123.41507 32.694911 L123.65444 32.619322 L124.47964 31.945306 L124.98987 31.157905 L125.5379 30.011452 L126.98672 27.882322 L127.42136 27.327992 L128.12688 26.578387 L129.14735 26.301222 L129.78986 26.011458 L130.01034 25.904374 L130.64026 25.746893 L130.99301 25.469729 L131.70482 25.312248 L132.53002 24.600439 L132.76309 24.518548 L133.63237 24.638235 L134.77253 24.871303 L135.73001 24.865005 L135.95678 24.865005 L137.60717 24.27288 L138.74732 24.468156 L139.37725 24.940596 L139.93158 24.934296 L139.93158 24.42406 L140.24024 24.071305 L140.85126 23.778394 L142.83551 23.120128 L144.60558 22.326426 L146.65282 21.179974 L146.88589 21.135878 L146.92999 21.337454 L146.65282 21.614619 L146.67487 21.869736 L146.96778 21.967374 L147.47802 21.728003 L148.4229 21.728003 L149.29219 22.156348 L150.12368 22.156348 L151.76777 22.15005 L152.3221 21.99257 L152.58431 21.701706 L152.59297 20.928005 L152.91678 20.681906 L153.04065 20.283521 L153.27694 19.778829 L153.671 19.245124 L154.05102 19.070151 L154.53045 18.867464 L155.03076 18.36423 L155.4969 17.690218 L156.05123 17.022503 L156.04493 16.587856 L156.32209 16.033525 L156.98981 15.479197 L157.07701 15.302761 L137.75704 15.554949 L137.6049 17.928726 L137.0614 17.945339 L136.84684 17.910634 L131.23346 17.915422 L131.41209 15.685858 L125.18637 15.633891 L125.01378 20.688219 L117.58264 20.761805 L117.56312 20.934304 L117.60091 21.368949 L117.60091 22.036664 L117.7269 23.768943 L117.7269 24.083904 L117.96627 24.323273 L118.31902 24.323273 L118.55209 24.159495 L118.94894 24.121698 L120.17098 24.392567 L120.44185 24.58784 L120.64343 25.217759 L121.04028 26.08705 L121.23555 26.124845 L121.31114 25.809885 L121.27335 24.940596 L121.34893 23.838235 L120.91429 23.050836 L120.35996 22.22564 L120.32217 21.954775 L120.71272 21.954775 L121.34264 22.817766 L122.01665 23.485481 L122.24972 23.40359 L122.75996 23.050836 L123.1757 23.028787 L122.99933 23.40359 L122.33161 23.838235 L122.01665 24.27288 L122.06075 24.58784 L122.4135 24.58784 L122.80405 24.468156 L123.04342 24.310676 L123.50956 23.479179 L124.13948 22.572098 L124.53003 22.572098 L124.8072 22.414617 L125.78987 21.627217 L126.06704 21.583122 L126.26231 21.74375 L125.39932 22.572098 L124.41665 23.674456 L123.2009 25.885474 L122.382 27.18311 L121.99145 28.247675 L121.53476 29.211452 L120.8513 30.968931 L120.8576 31.598851 L121.24815 31.756331 L121.24815 32.033494 L120.93949 32.858689 L121.13791 33.098058 L121.76468 32.505934 L122.35051 31.51696 L123.13791 30.64767 L123.52846 29.860271 L125.02137 27.88862 L125.29224 27.453975 L125.5694 26.824058 Z M120.74421 34.27601 L120.84185 33.510656 L120.11429 34.12483 L119.72374 34.75475 L118.98044 36.921673 L118.66548 37.67128 L118.78516 38.181515 L118.70957 38.53427 L118.4702 38.893324 L118.27493 39.479148 L118.00406 40.6634 L117.6954 41.690166 L117.6954 41.898042 L117.6954 42.395679 L117.93477 42.868118 L117.95367 43.775202 L118.16784 43.812999 L118.52689 43.460243 L118.99303 41.526389 L119.81193 39.126394 L120.045 38.137419 L120.35996 37.589389 L120.55524 36.600414 L120.63083 35.107505 L120.74421 34.27601 Z M108.35369 52.071248 L108.46707 51.321643 L108.38518 50.219285 L108.54266 49.507476 L108.65605 49.274405 L108.61825 49.035036 L107.86865 47.617716 L107.434 46.79252 L107.27652 46.679134 L106.91747 46.754726 L106.72219 46.9563 L106.60881 47.309054 L106.57101 47.624015 L106.80408 48.291729 L106.76629 48.5311 L106.29385 48.883855 L106.14267 49.438183 L105.8655 50.068104 L105.78991 50.698024 L105.35527 51.365739 L104.96472 51.365739 L104.49228 50.742119 L104.17732 50.779915 L103.70488 51.132669 L103.58519 51.491723 L103.59149 52.235028 L103.94425 53.022429 L104.37889 53.57676 L104.38519 54.75471 L104.61826 54.912189 L104.97102 54.949985 L105.21039 55.504315 L105.60724 55.857071 L106.15527 56.127935 L106.70959 56.165729 L108.04502 55.812975 L108.35999 55.611401 L108.39778 55.063369 L108.63085 54.748408 L108.63085 54.471246 L108.55526 53.998804 L108.78833 53.721641 L108.94581 53.444476 L109.14109 52.61928 L108.98361 52.461801 L108.62455 52.342115 L108.35369 52.071248 Z M100.71276 66.931062 L101.1474 66.697992 L101.65764 66.931062 L101.9726 66.968858 L102.99307 66.653898 L103.81826 66.534213 L104.01984 66.332638 L104.44818 65.583034 L104.48598 65.230277 L103.5411 64.524768 L103.10645 63.894848 L103.06866 63.579887 L103.14425 63.189338 L103.5348 62.792488 L103.84976 62.672803 L104.2844 62.238158 L104.95212 61.368868 L105.30487 60.701153 L105.34267 60.304305 L104.90802 59.283834 L104.82613 58.572024 L104.99936 57.825569 L104.50488 57.82872 L104.42928 57.198798 L103.87495 56.726359 L103.63558 56.335808 L103.44031 55.743682 L103.32062 55.031875 L103.16314 54.603526 L102.7663 54.288567 L102.09858 54.011403 L101.70173 54.093292 L101.27339 54.370456 L100.64347 55.000378 L100.01355 55.951557 L99.66079 56.064943 L99.427721 56.027149 L99.204098 55.806674 L99.188349 55.164159 L99.73638 53.312193 L99.730082 52.915343 L99.024573 52.247626 L98.237172 52.291722 L97.934811 52.505895 L97.726936 52.644477 L96.863946 54.496441 L96.66867 55.132661 L96.4356 56.783051 L96.007255 57.570452 L95.452925 58.364151 L95.144263 59.189346 L94.911193 60.172022 L94.476548 61.04131 L94.400958 61.753119 L94.400958 62.383039 L94.722218 63.01296 L94.917495 63.283826 L94.917495 63.680676 L94.602533 63.838157 L94.211983 63.680676 L93.972613 63.762564 L93.972613 64.033431 L94.40726 64.505872 L94.885996 65.76571 L95.081271 66.987756 L94.810407 67.857044 L94.690722 68.247596 L94.930092 68.562554 L95.087572 69.072793 L95.232452 69.217672 L95.402531 69.387751 L95.874971 69.583028 L96.271821 69.583028 L96.901742 69.501137 L97.449771 69.268067 L98.079691 68.631846 L98.514337 68.316886 L99.415122 67.957833 L100.08284 67.642873 L100.32221 67.327912 L100.71276 66.931062 Z M89.588369 72.512153 L88.996245 72.354673 L88.523805 72.360972 L88.366325 72.634987 L88.958449 72.789318 L89.726952 72.748371 L89.588369 72.512153 Z M95.849775 72.814513 L95.17576 72.461759 L94.268674 72.581443 L93.878125 72.858609 L93.60096 73.135774 L93.405684 73.255459 L93.405684 73.450735 L93.563164 73.56412 L94.23718 73.526325 L95.452925 73.286954 L95.80568 73.047587 L95.849775 72.814513 Z M90.886005 87.831809 L90.413565 87.831809 L90.218291 88.027084 L90.29388 88.266452 L90.615138 88.61921 L90.419865 89.129444 L90.457659 89.365662 L90.652935 89.324719 L90.886005 88.852279 L90.886005 88.225508 L90.886005 87.831809 Z M47.093968 101.75304 L48.542782 101.63966 L50.048291 101.99241 L51.723879 102.81131 L52.630965 102.79241 L54.514425 102.50265 L55.213635 102.21288 L56.416781 101.54517 L58.715992 99.126272 L59.33961 98.874306 L60.511262 98.60344 L61.292363 98.345173 L62.615196 97.683757 L66.029362 95.819193 L66.652983 95.567224 L67.156918 95.434943 L67.54747 95.227067 L68.334868 95.208173 L69.645103 94.886911 L70.086045 94.527858 L70.275023 94.653842 L70.829353 94.691637 L71.616754 94.886911 L72.441948 95.157779 L73.386827 95.592423 L74.489188 95.586123 L74.886037 95.510534 L75.749029 94.798724 L76.221468 94.836518 L76.656112 95.107383 L76.933276 95.151478 L78.898628 94.786125 L79.881303 94.508959 L80.429333 94.03652 L81.216734 93.526285 L82.004134 93.205024 L82.356889 92.890065 L82.514368 92.53731 L83.654522 92.020777 L83.887593 92.096366 L83.692318 92.531013 L83.692318 92.77038 L83.893892 93.041248 L84.328538 93.041248 L84.794678 92.921562 L85.424598 92.921562 L85.903339 93.236522 L86.684438 93.034947 L86.92381 92.801877 L86.961604 91.699516 L87.427745 91.220779 L87.352153 90.987706 L86.624595 90.890068 L86.558453 89.967236 L86.130107 89.570387 L86.048218 89.142043 L86.205699 88.745192 L86.476566 88.512122 L87.308059 88.348343 L87.774201 87.680627 L88.599395 87.044408 L89.506479 86.609764 L89.934826 86.490078 L91.824585 86.445984 L91.982065 86.175118 L92.057657 85.425513 L93.393086 84.083785 L93.585212 83.970397 L93.789936 84.159374 L93.752142 85.92945 L92.926945 86.521575 L92.498599 87.038108 L92.25923 87.038108 L92.101749 86.918422 L91.78679 87.038108 L91.78679 87.233383 L92.145844 87.630233 L92.58049 87.825508 L93.638754 87.74362 L93.720645 87.548343 L93.676549 86.817637 L94.268674 86.641261 L94.426155 86.401889 L94.268674 86.011341 L94.067102 85.29953 L94.142693 84.512129 L94.300171 83.88221 L94.848202 82.187725 L95.314342 81.04757 L95.824577 80.096391 L96.574182 79.151509 L97.002528 78.401905 L97.273393 77.614507 L97.355283 76.864901 L97.273393 76.392461 L97.034023 75.957817 L96.523789 75.724747 L95.541113 75.491674 L94.589936 75.063331 L94.004107 74.943645 L92.34742 74.710575 L91.641908 74.754669 L91.289153 74.874353 L91.125374 74.792464 L90.967894 74.679078 L90.615138 74.679078 L89.827741 75.113722 L89.317505 75.031834 L88.334829 74.641283 L87.660815 74.212939 L87.308059 73.790892 L87.068689 73.507429 L86.325384 73.312151 L85.456095 72.915303 L84.826175 72.247587 L84.309639 72.096405 L84.152159 71.938926 L83.799404 70.874361 L83.717516 70.244441 L83.793106 68.827121 L83.988381 68.115313 L84.341136 67.365708 L85.008852 66.578308 L86.697037 65.116894 L87.950577 64.209808 L88.618293 63.617682 L89.128528 62.905874 L89.758448 62.351544 L90.035614 62.351544 L90.211991 62.707449 L90.778918 61.998789 L91.251358 61.639735 L91.843484 61.872805 L92.712773 62.779889 L93.065529 62.937368 L93.298597 62.464931 L93.223008 62.068079 L93.178913 61.438159 L93.374187 60.65076 L93.298597 60.216115 L93.021433 59.863359 L93.021433 59.510604 L93.726946 58.288559 L94.193085 57.658639 L94.268674 57.028719 L94.46395 56.392502 L95.169461 55.214552 L95.40883 54.622426 L95.484422 53.87282 L95.641901 53.047626 L96.108042 52.058652 L96.536386 50.79881 L96.460797 50.521646 L96.416704 50.049208 L96.851347 49.381491 L96.889144 48.121651 L96.744262 47.844486 L97.254497 47.844486 L98.514337 48.228737 L98.747407 47.598817 L98.300164 47.523228 L98.022998 47.327953 L98.045045 47.072836 L98.337958 46.893308 L98.577328 46.660239 L98.772603 46.105907 L98.930084 45.948428 L99.320633 45.828743 L99.478113 45.318508 L99.629294 44.291738 L99.830868 43.976779 L100.06394 43.976779 L100.22142 44.134257 L100.22142 44.801972 L100.07024 45.356303 L100.07024 45.948428 L100.42299 46.061813 L100.71276 45.740552 L101.21039 44.524808 L102.07338 43.617724 L101.75212 42.987803 L102.06709 42.515363 L102.16472 41.983081 L104.15464 42.239367 L105.32377 38.748442 L105.47495 37.803563 L103.44031 37.009863 L103.38992 36.801988 L103.23244 36.247658 L102.87968 35.938998 L102.60252 35.624039 L102.55842 34.521678 L102.43874 33.690184 L102.51433 32.902784 L102.90488 31.995698 L102.94897 31.567354 L102.86708 31.327982 L102.85449 31.069717 L102.82299 30.502789 L103.13795 30.146883 L102.98047 29.872869 L102.98047 29.520114 L102.7411 29.280744 L102.7033 28.92799 L102.7789 28.531137 L103.13165 27.939014 L104.27181 26.994136 L105.0592 26.049256 L105.60724 25.375239 L105.80251 25.022485 L106.05133 24.115401 L106.38834 23.088631 L106.58361 23.050836 L106.74109 22.69493 L106.6592 22.30123 L106.81668 21.828788 L106.85448 21.35635 L107.04345 20.817767 L107.67967 20.253991 L108.03243 19.819344 L108.07022 19.504385 L108.2277 19.302812 L108.66235 19.30596 L108.62455 19.775252 L108.42928 20.247691 L107.93479 20.802021 L107.36471 21.161075 L107.28912 21.671311 L107.37101 22.024065 L107.56629 22.219341 L107.80566 22.181546 L108.36943 21.614617 L109.37416 21.545327 L109.96628 21.035092 L110.43872 20.833518 L111.14423 20.241392 L112.28439 19.611472 L115.23241 18.187854 L115.82454 18.105963 L116.41666 18.301237 L116.80721 18.339033 L118.26233 17.97998 L118.70114 18.015085 L119.29152 17.417851 L119.87378 16.826216 L119.87584 13.399369 L119.84626 10.447735 L119.88508 7.0183618 L119.79261 3.9175959 L113.87915 3.9769808 L113.6898 3.9967441 L111.47289 3.9973026 L106.00617 4.0257145 L105.90192 3.3724964 L105.89674 2.9453417 L105.88458 2.5497893 L105.85401 0.31427468 L105.79416 -2.0224344 L103.3064 -2.050994 L103.21536 -4.6124826 L99.574019 -4.5622499 L99.384258 -2.0085116 L97.382765 -1.8717464 L97.428892 0.14646673 L97.36618 0.5040762 L97.430109 0.83945638 L99.724349 0.81394521 L99.759316 2.5342943 L99.795762 4.3372691 L99.776516 4.4919347 L99.83746 6.6045165 L99.839667 6.7837813 L99.962115 13.594671 L103.85131 13.576431 L103.71367 13.936344 L103.48278 14.433265 L103.41849 14.626649 L102.99525 16.138291 L102.18567 18.337871 L100.80415 19.611618 L100.63419 19.768488 L100.482 19.912531 L100.2843 20.092505 L99.945767 20.517238 L99.593719 20.403914 L84.416576 20.789668 L83.736035 20.760538 L83.240253 20.660421 L82.364256 20.441919 L81.492579 19.988058 L80.460247 19.087348 L80.736784 21.469951 L78.904959 21.64835 L78.966858 22.064271 L80.801438 22.137272 L80.883041 23.300937 L80.480567 23.343237 L79.958814 23.401085 L79.391566 23.458829 L78.917839 23.427826 L78.56514 23.552147 L78.327168 23.841677 L77.89033 23.962192 L77.418161 24.050955 L77.187356 24.112777 L77.579801 24.361225 L77.823111 24.449121 L78.207486 24.358699 L78.598436 24.243683 L79.069574 24.07511 L79.335336 24.015648 L79.616591 24.872075 L79.703971 25.144793 L80.120249 26.407098 L78.908696 26.525687 L78.667303 26.549117 L78.460342 26.570355 L78.250486 26.580772 L78.24905 27.286416 L78.2521 27.664228 L78.287622 28.509468 L78.27177 28.651498 L78.25833 31.517947 L76.023187 31.624693 L75.825287 31.63357 L75.56404 31.646777 L75.563282 31.976662 L75.557874 32.23167 L75.530921 33.936732 L74.182612 34.010349 L73.980471 34.02186 L68.65223 34.318356 L68.697266 36.936942 L63.032178 37.086082 L62.843418 39.490217 L60.574867 39.635534 L59.462383 41.101718 L59.585279 47.079236 L59.218185 47.13532 L59.26066 48.988663 L59.278537 49.530521 L60.193622 49.590317 L60.295824 50.666132 L61.729453 50.737194 L61.756317 51.67745 L61.820244 51.873049 L61.963252 51.973735 L62.28586 51.993919 L63.009223 51.971965 L63.802975 51.994609 L65.6357 52.042287 L65.766139 52.630972 L66.313757 52.722438 L66.382929 53.435207 L66.649581 53.461078 L66.841972 53.720814 L68.51719 53.75708 L69.533058 53.775162 L69.795791 53.782899 L70.382358 54.149164 L70.608317 54.293265 L71.081936 54.62601 L70.558496 55.041927 L70.198665 55.364645 L69.880789 55.700119 L69.229938 56.825126 L68.725594 57.604319 L68.134127 58.458914 L67.888932 58.974845 L67.615754 59.491849 L66.849061 59.523041 L66.510916 60.158582 L65.94674 60.40072 L65.731276 60.784599 L65.22558 60.712197 L64.865042 60.698797 L64.64274 60.31165 L64.365119 60.526176 L64.500041 60.935499 L64.314662 61.181709 L63.842684 61.519302 L63.242635 61.684921 L62.4055 61.936379 L61.801206 62.331807 L61.3302 62.704442 L60.629686 63.213246 L60.178128 63.494585 L59.720244 63.850957 L59.053308 64.225568 L58.675768 64.038767 L58.476775 64.835 L57.502974 64.850296 L57.446246 65.540947 L57.11549 66.467148 L57.109832 66.827925 L57.109074 67.042605 L56.9687 67.40276 L53.995048 67.455177 L53.811358 67.850606 L53.712264 68.055075 L53.457433 68.114591 L53.285076 67.52652 L51.21007 67.627123 L51.006554 69.882382 L50.762791 69.877681 L50.539861 69.908416 L47.941293 69.916622 L46.914029 69.938912 L44.862491 69.96743 L44.852526 74.028463 L44.940674 82.493986 L44.935642 82.758456 L44.955785 83.183317 L44.984654 83.625216 L43.682532 83.762105 L43.70503 84.616977 L43.655694 85.337677 L43.484985 87.909127 L42.928938 87.935118 L41.679635 87.950528 L40.430625 87.954072 L40.407529 88.676161 L40.457202 92.320002 L41.007015 92.290555 L41.695374 92.296062 L45.406455 92.186264 L45.311931 93.433944 L45.397069 95.034921 L45.414641 95.91753 L45.394024 96.182219 L45.389037 97.223083 L44.102111 97.245942 L43.893737 97.34796 L43.875418 98.809603 L43.9077 99.872362 L43.899882 100.55957 L43.874151 100.98227 L43.891305 101.4548 L43.870344 101.8249 L43.826371 103.5498 L44.366413 103.00658 L46.073496 102.01761 L47.093968 101.75304 Z M101.51516 29.83797 L102.71361 29.780559 L102.5698 30.643063 L102.48994 31.287674 L102.43084 31.619669 L102.34933 31.810467 L102.26807 32.340235 L102.07231 33.234897 L102.13765 33.731354 L102.13289 34.61702 L102.18177 34.875556 L102.2146 35.567112 L101.79182 35.798165 L101.6515 34.657593 L101.53575 31.81484 L101.51712 31.120309 L101.45521 30.942477 L101.41529 30.684883 L101.48084 30.185771 L101.51516 29.83797 Z "  fill="#FDB462" fill-rule="evenodd" stroke="#6E6E6E" fill-opacity="1" stroke-opacity="1"  stroke-width="0.7" stroke-linecap="round" stroke-linejoin="round" stroke-miterlimit="10" />
</g>
</g>
<g clip-path="url(#cp_2)">
<g transform="matrix(4.1666667 0 0 -4.1666667 974.4075 826.77)">
<path d="M121.58289 13.036204 L121.64678 12.800139 L121.9736 11.97341 L122.10443 11.761077 L122.40288 11.495663 L122.96708 11.15502 L123.43102 10.92831 L123.94539 10.847391 L124.16585 10.791604 L124.35363 10.652857 L124.57826 10.361706 L124.656 10.128289 L124.56933 9.5921254 L124.42439 8.9074651 L124.33548 8.3366622 L123.6037 8.305243 L123.53806 7.4834468 L123.84994 7.0042834 L119.88508 7.0183618 L119.84626 10.447735 L119.87584 13.399369 L119.87378 16.826216 L120.25924 16.225695 L120.74236 15.250044 L121.45529 13.523739 L121.58289 13.036204 Z "  fill="#B3DE69" fill-rule="evenodd" stroke="#6E6E6E" fill-opacity="1" stroke-opacity="1"  stroke-width="0.7" stroke-linecap="round" stroke-linejoin="round" stroke-miterlimit="10" />
</g>
</g>
<g clip-path="url(#cp_2)">
<g transform="matrix(4.1666667 0 0 -4.1666667 974.4075 826.77)">
<path d="M125.18637 15.633891 L124.97906 13.173162 L121.58289 13.036204 L121.45529 13.523739 L120.74236 15.250044 L120.25924 16.225695 L119.87378 16.826216 L119.29152 17.417851 L118.70114 18.015085 L118.08221 19.353205 L117.63871 20.266588 L117.58264 20.761805 L125.01378 20.688219 L125.18637 15.633891 Z "  fill="#FCCDE5" fill-rule="evenodd" stroke="#6E6E6E" fill-opacity="1" stroke-opacity="1"  stroke-width="0.7" stroke-linecap="round" stroke-linejoin="round" stroke-miterlimit="10" />
</g>
</g>
<g clip-path="url(#cp_2)">
<g transform="matrix(4.1666667 0 0 -4.1666667 974.4075 826.77)">
<path d="M124.97906 13.173162 L125.18637 15.633891 L131.41209 15.685858 L131.49763 14.642485 L131.49715 13.996071 L131.4715 13.600667 L131.46217 13.387167 L131.42054 12.800051 L131.48002 11.405683 L131.48834 11.04631 L131.49655 10.557375 L125.23048 10.672105 L124.97906 13.173162 Z "  fill="#D9D9D9" fill-rule="evenodd" stroke="#6E6E6E" fill-opacity="1" stroke-opacity="1"  stroke-width="0.7" stroke-linecap="round" stroke-linejoin="round" stroke-miterlimit="10" />
</g>
</g>
<g clip-path="url(#cp_2)">
<g transform="matrix(4.1666667 0 0 -4.1666667 974.4075 826.77)">
<path d="M102.5698 30.643063 L102.71361 29.780559 L101.51516 29.83797 L101.48084 30.185771 L101.41529 30.684883 L101.45521 30.942477 L101.51712 31.120309 L101.53575 31.81484 L101.6515 34.657593 L101.79182 35.798165 L102.2146 35.567112 L102.18177 34.875556 L102.13289 34.61702 L102.13765 33.731354 L102.07231 33.234897 L102.26807 32.340235 L102.34933 31.810467 L102.43084 31.619669 L102.48994 31.287674 L102.5698 30.643063 Z "  fill="#BC80BD" fill-rule="evenodd" stroke="#6E6E6E" fill-opacity="1" stroke-opacity="1"  stroke-width="0.7" stroke-linecap="round" stroke-linejoin="round" stroke-miterlimit="10" />
</g>
</g>
<g clip-path="url(#cp_2)">
<g transform="matrix(4.1666667 0 0 -4.1666667 974.4075 826.77)">
<path d="M153.41501 19.989424 L154.53045 18.867464 L154.05102 19.070151 L153.671 19.245124 L153.27694 19.778829 L153.04065 20.283521 L152.91678 20.681906 L153.06541 20.568951 L153.41501 19.989424 Z M10.10479 105.70558 L9.7985649 105.37774 L9.7138931 105.78548 L10.218058 105.81812 L10.10479 105.70558 Z M-224.1518 127.13117 L-224.17925 126.45625 L-224.50552 126.75336 L-224.1518 127.13117 Z M-190.85389 123.0594 L-191.03154 115.85305 L-186.1054 115.75108 L-186.11285 111.98861 L-173.72329 111.74581 L-173.71123 111.1417 L-173.70507 110.92511 L-173.60335 106.62108 L-173.63141 105.5754 L-173.69022 103.87254 L-174.77273 103.82023 L-174.83528 100.73705 L-170.82194 100.71261 L-165.67673 98.139844 L-159.88369 95.373572 L-159.85639 96.748854 L-158.78111 96.289 L-157.57621 95.631869 L-157.04485 94.525747 L-156.77977 93.059225 L-144.78653 93.174575 L-135.21363 93.184791 L-135.22539 96.405235 L-132.75275 96.333476 L-131.01718 96.313732 L-130.75224 96.279272 L-130.05261 96.261075 L-126.59494 96.163356 L-126.45546 96.238476 L-126.11373 96.16571 L-122.9238 95.98982 L-122.80193 93.625457 L-122.27376 93.609939 L-108.40433 93.203244 L-108.27181 91.850975 L-103.2756 91.765207 L-103.00779 91.760328 L-98.267062 91.677134 L-85.098162 91.243887 L-84.861209 91.249035 L-79.7822 91.086038 L-79.877269 88.255012 L-76.582424 88.120331 L-76.710626 83.584953 L-76.713435 83.423895 L-76.726399 83.075289 L-74.34243 83.092626 L-74.329664 78.782457 L-71.217251 78.581435 L-71.213265 76.076519 L-71.211526 75.460085 L-70.371596 75.437877 L-70.102329 75.430432 L-64.313688 75.275049 L-64.037078 75.267524 L-62.374656 75.223075 L-62.318695 77.701732 L-64.843905 77.843576 L-64.688993 82.798062 L-67.199753 82.958055 L-67.279922 85.423647 L-70.977973 85.551092 L-70.87532 88.040161 L-42.988413 87.715912 L-42.985474 91.290941 L-40.477355 91.22869 L-40.244049 98.209004 L-44.645937 98.399169 L-44.690191 103.544 L-40.784467 103.42079 L-40.882126 104.31477 L-40.812344 104.48733 L-40.749682 105.98526 L-38.215823 106.0481 L-37.098767 105.91498 L-37.099557 104.12465 L-36.959251 102.24097 L-33.089127 102.06318 L-33.218523 96.454032 L-30.711665 96.309144 L-30.825374 91.220882 L-33.966263 91.325612 L-34.092281 88.759839 L-34.103409 88.498055 L-34.21921 86.082012 L-27.837565 85.946863 L-27.61811 92.423089 L-23.243896 92.406455 L-23.338814 86.641986 L-20.135368 86.492413 L-20.176978 85.19587 L-20.282101 82.088314 L-17.792096 81.942556 L-17.787915 78.856395 L-14.604516 78.728682 L-14.667613 73.112942 L-12.259705 73.04663 L-12.415705 69.337505 L-3.3830206 69.005343 L-3.0144419 70.175703 L-2.7018402 70.718647 L7.4550048 70.636868 L11.444142 70.44625 L11.582056 77.826551 L14.068164 77.642524 L14.330022 82.803488 L9.3372561 83.158003 L9.4172156 88.041511 L8.0604962 88.115072 L8.1625661 90.026381 L6.7920372 90.121914 L7.2241479 96.744183 L10.721567 96.641345 L17.629163 96.442922 L17.933113 96.435643 L18.464817 96.416611 L18.491406 97.148501 L18.543406 97.706317 L18.570477 99.546607 L18.565318 99.913 L18.548328 101.6881 L18.554505 102.5131 L18.567163 103.8409 L18.531651 105.9457 L17.595818 105.56772 L16.854578 105.35942 L14.100001 105.26922 L14.104167 106.47668 L13.425532 106.47065 L13.097251 106.53156 L12.846448 106.59203 L12.50101 106.6399 L12.406206 106.40036 L12.018659 106.42225 L11.812869 106.58046 L11.597292 106.71186 L12.1901 106.89319 L12.977499 106.91208 L14.432614 106.98768 L17.160168 107.23335 L19.616857 107.80027 L20.164887 107.82547 L21.582207 107.90106 L22.489291 107.80027 L23.465667 107.61759 L25.109758 107.13886 L27.585343 107.07586 L28.56802 106.85539 L28.920775 106.94673 L29.204239 107.11366 L29.607386 107.6113 L30.092424 108.07114 L31.837304 108.49948 L32.429428 108.56248 L32.895571 108.3924 L33.670373 107.81917 L34.249897 107.49161 L34.709738 107.08216 L35.245172 106.43964 L35.786901 105.91051 L36.637295 105.49477 L37.342804 105.28059 L38.048315 105.1861 L40.410516 105.1987 L41.588466 105.00973 L42.249882 104.83965 L43.024685 104.34201 L43.295548 104.08374 L43.826371 103.5498 L43.870344 101.8249 L43.891305 101.4548 L43.874151 100.98227 L43.899882 100.55957 L43.9077 99.872362 L43.875418 98.809603 L43.893737 97.34796 L44.102111 97.245942 L45.389037 97.223083 L45.394024 96.182219 L45.414641 95.91753 L45.397069 95.034921 L45.311931 93.433944 L45.406455 92.186264 L41.695374 92.296062 L41.007015 92.290555 L40.457202 92.320002 L40.407529 88.676161 L40.430625 87.954072 L41.679635 87.950528 L42.928938 87.935118 L43.484985 87.909127 L43.655694 85.337677 L43.70503 84.616977 L43.682532 83.762105 L44.984654 83.625216 L44.955785 83.183317 L44.935642 82.758456 L44.940674 82.493986 L44.852526 74.028463 L44.862491 69.96743 L46.914029 69.938912 L47.941293 69.916622 L50.539861 69.908416 L50.762791 69.877681 L51.006554 69.882382 L51.21007 67.627123 L53.285076 67.52652 L53.457433 68.114591 L53.712264 68.055075 L53.811358 67.850606 L53.995048 67.455177 L56.9687 67.40276 L57.109074 67.042605 L57.109832 66.827925 L57.11549 66.467148 L57.446246 65.540947 L57.502974 64.850296 L58.476775 64.835 L58.675768 64.038767 L59.053308 64.225568 L59.720244 63.850957 L60.178128 63.494585 L60.629686 63.213246 L61.3302 62.704442 L61.801206 62.331807 L62.4055 61.936379 L63.242635 61.684921 L63.842684 61.519302 L64.314662 61.181709 L64.500041 60.935499 L64.365119 60.526176 L64.64274 60.31165 L64.865042 60.698797 L65.22558 60.712197 L65.731276 60.784599 L65.94674 60.40072 L66.510916 60.158582 L66.849061 59.523041 L67.615754 59.491849 L67.888932 58.974845 L68.134127 58.458914 L68.725594 57.604319 L69.229938 56.825126 L69.880789 55.700119 L70.198665 55.364645 L70.558496 55.041927 L71.081936 54.62601 L70.608317 54.293265 L70.382358 54.149164 L69.795791 53.782899 L69.533058 53.775162 L68.51719 53.75708 L66.841972 53.720814 L66.649581 53.461078 L66.382929 53.435207 L66.313757 52.722438 L65.766139 52.630972 L65.6357 52.042287 L63.802975 51.994609 L63.009223 51.971965 L62.28586 51.993919 L61.963252 51.973735 L61.820244 51.873049 L61.756317 51.67745 L61.729453 50.737194 L60.295824 50.666132 L60.193622 49.590317 L59.278537 49.530521 L59.26066 48.988663 L59.218185 47.13532 L59.585279 47.079236 L59.462383 41.101718 L60.574867 39.635534 L62.843418 39.490217 L63.032178 37.086082 L68.697266 36.936942 L68.65223 34.318356 L73.980471 34.02186 L74.182612 34.010349 L75.530921 33.936732 L75.557874 32.23167 L75.563282 31.976662 L75.56404 31.646777 L75.825287 31.63357 L76.023187 31.624693 L78.25833 31.517947 L78.27177 28.651498 L78.287622 28.509468 L78.2521 27.664228 L78.24905 27.286416 L78.250486 26.580772 L78.460342 26.570355 L78.667303 26.549117 L78.908696 26.525687 L80.120249 26.407098 L79.703971 25.144793 L79.616591 24.872075 L79.335336 24.015648 L79.069574 24.07511 L78.598436 24.243683 L78.207486 24.358699 L77.823111 24.449121 L77.579801 24.361225 L77.187356 24.112777 L77.418161 24.050955 L77.89033 23.962192 L78.327168 23.841677 L78.56514 23.552147 L78.917839 23.427826 L79.391566 23.458829 L79.958814 23.401085 L80.480567 23.343237 L80.883041 23.300937 L80.801438 22.137272 L78.966858 22.064271 L78.904959 21.64835 L80.736784 21.469951 L80.460247 19.087348 L81.492579 19.988058 L82.364256 20.441919 L83.240253 20.660421 L83.736035 20.760538 L84.416576 20.789668 L99.593719 20.403914 L99.945767 20.517238 L100.2843 20.092505 L100.482 19.912531 L100.63419 19.768488 L100.80415 19.611618 L102.18567 18.337871 L102.99525 16.138291 L103.41849 14.626649 L103.48278 14.433265 L103.71367 13.936344 L103.85131 13.576431 L99.962115 13.594671 L99.839667 6.7837813 L99.83746 6.6045165 L99.776516 4.4919347 L99.795762 4.3372691 L99.759316 2.5342943 L99.724349 0.81394521 L97.430109 0.83945638 L97.36618 0.5040762 L97.428892 0.14646673 L97.382765 -1.8717464 L99.384258 -2.0085116 L99.574019 -4.5622499 L103.21536 -4.6124826 L103.3064 -2.050994 L105.79416 -2.0224344 L105.85401 0.31427468 L105.88458 2.5497893 L105.89674 2.9453417 L105.90192 3.3724964 L106.00617 4.0257145 L111.47289 3.9973026 L113.6898 3.9967441 L113.87915 3.9769808 L119.79261 3.9175959 L119.88508 7.0183618 L123.84994 7.0042834 L123.53806 7.4834468 L123.6037 8.305243 L124.33548 8.3366622 L124.42439 8.9074651 L124.56933 9.5921254 L124.656 10.128289 L124.57826 10.361706 L124.35363 10.652857 L124.16585 10.791604 L123.94539 10.847391 L123.43102 10.92831 L122.96708 11.15502 L122.40288 11.495663 L122.10443 11.761077 L121.9736 11.97341 L121.64678 12.800139 L121.58289 13.036204 L124.97906 13.173162 L125.23048 10.672105 L131.49655 10.557375 L131.48834 11.04631 L131.48002 11.405683 L131.42054 12.800051 L131.46217 13.387167 L131.4715 13.600667 L131.49715 13.996071 L131.49763 14.642485 L131.41209 15.685858 L131.23346 17.915422 L136.84684 17.910634 L137.0614 17.945339 L137.6049 17.928726 L137.75704 15.554949 L157.07701 15.302761 L157.26067 14.931167 L157.8528 14.301247 L157.77091 13.784712 L157.8528 13.394161 L158.31894 12.720147 L158.70949 11.813063 L158.86697 10.830386 L158.90477 9.9610989 L158.79768 9.6839342 L158.6276 9.255586 L158.6276 8.6256671 L158.54571 8.3925959 L158.6654 8.1154323 L158.70319 7.8382664 L158.46382 7.0508658 L158.46382 6.5028369 L159.01185 4.764259 L159.00555 3.5422131 L159.20083 2.8744977 L159.23862 2.2067823 L159.86854 0.94064281 L159.94413 0.58788863 L159.74886 0.19733801 L160.01973 -0.31919731 L159.58508 -0.90502267 L159.58508 -1.3396668 L159.86225 -1.6168316 L160.32839 -1.8939963 L160.83862 -2.4042322 L160.87642 -3.1916329 L160.76303 -3.5065918 L160.59925 -3.6640723 L160.12681 -3.7018665 L160.17091 -3.9412371 L160.63705 -4.7664319 L160.63705 -5.0058013 L160.28429 -5.0058013 L159.84965 -4.7286377 L159.65437 -4.7664319 L159.30162 -5.4719425 L159.53154 -6.1428082 L159.02445 -6.0640673 L158.74729 -6.259342 L158.82288 -6.4987115 L159.13784 -6.9333568 L159.29532 -7.8341422 L159.61028 -7.9160322 L159.80555 -7.9160322 L160.51106 -8.4325664 L160.66854 -8.7475241 L160.51106 -8.9050047 L160.00083 -8.823117 L159.4465 -8.5081581 L158.23075 -7.4813869 L157.32367 -7.0026468 L156.93312 -6.9648527 L156.77564 -7.1601274 L158.97406 -8.8987076 L159.4087 -9.1758723 L160.82602 -9.7302018 L161.60712 -9.8876824 L162.12051 -9.733352 L162.04177 -9.4971306 L161.92838 -9.1065811 L162.24334 -9.1443753 L162.79137 -9.4971306 L163.50003 -10.60579 L163.69216 -10.290832 L163.89373 -10.253035 L164.98979 -11.944372 L164.5205 -11.70815 L164.39767 -11.903426 L164.59295 -12.495551 L164.88586 -13.078227 L164.98349 -13.597912 L165.33625 -13.994759 L166.00396 -14.511295 L166.5583 -15.418379 L167.37719 -17.345934 L167.41498 -17.818374 L167.53467 -18.177429 L168.0827 -18.454595 L168.15829 -18.769553 L167.52837 -19.51286 L167.49058 -19.790023 L167.91892 -20.142778 L168.00081 -20.659314 L168.51105 -21.207344 L168.58664 -21.484509 L168.35357 -21.566398 L167.76144 -21.560098 L167.60396 -21.761675 L168.03231 -22.076635 L168.58664 -22.196318 L168.81971 -22.511277 L169.21656 -22.908128 L169.99766 -23.223088 L170.4323 -23.619938 L170.90474 -24.167968 L170.82285 -24.369542 L170.78506 -24.684502 L171.56616 -25.862452 L171.52521 -26.101823 L171.2134 -26.177412 L171.17561 -26.372687 L171.52836 -26.851428 L172.11734 -27.875048 L172.42915 -27.676623 L172.66852 -27.563236 L172.93938 -27.99788 L173.33623 -28.388432 L173.68899 -28.6278 L173.95986 -29.018353 L174.67166 -29.415201 L175.06221 -29.572681 L175.45277 -30.05142 L175.53466 -30.322286 L175.2197 -30.441971 L175.1378 -30.68134 L174.82285 -31.071891 L174.3882 -31.071891 L174.15513 -30.990001 L173.84017 -30.990001 L173.72048 -31.30496 L174.07324 -31.54433 L174.54568 -31.619921 L174.75985 -31.975828 L174.97403 -32.174252 L175.60394 -32.766376 L176.16521 -33.553151 L174.71977 -33.510582 L174.25606 -33.51113 L173.10468 -33.49452 L172.88314 -33.510472 L156.4776 -33.181853 L149.55357 -33.133962 L130.72414 -32.866274 L130.45982 -37.882588 L129.26938 -37.885101 L129.18988 -42.984054 L130.47891 -42.99107 L130.42285 -44.374997 L130.43654 -44.567046 L130.41472 -45.229316 L130.40732 -45.878443 L130.42879 -46.135013 L130.3744 -46.40939 L130.36943 -46.576247 L130.33629 -46.898025 L130.28155 -47.378531 L130.00273 -47.359943 L124.0211 -47.071266 L120.86797 -46.94916 L120.94031 -54.916368 L120.6929 -55.63483 L117.2688 -55.460929 L116.66073 -54.299603 L113.71579 -54.043453 L113.06322 -53.963563 L112.56604 -53.791665 L112.20177 -53.402839 L111.75166 -52.876417 L110.8854 -52.144716 L109.92214 -51.900672 L108.99309 -51.724244 L107.73288 -51.437353 L106.78253 -51.195477 L105.51689 -50.979874 L104.55145 -50.617996 L101.75321 -52.745192 L100.10193 -51.039242 L97.899693 -52.949327 L94.138091 -52.867739 L93.975346 -52.104433 L89.519424 -52.163577 L89.238793 -57.414793 L88.421504 -57.575394 L87.853965 -57.435174 L87.396895 -57.738962 L87.03939 -57.927045 L86.880347 -58.010478 L86.667215 -57.927243 L86.18098 -57.731996 L85.346648 -57.309615 L84.814752 -56.830126 L84.224567 -56.552989 L83.545354 -56.359453 L83.054914 -56.243948 L82.288229 -56.012152 L81.765444 -55.941739 L81.223269 -55.766717 L80.785914 -55.319891 L80.249397 -55.243674 L79.863128 -54.944567 L79.120178 -54.518305 L78.458592 -54.319992 L77.919377 -54.168769 L77.173255 -53.991051 L76.402698 -53.815803 L75.76381 -53.502873 L75.070453 -53.306884 L74.668518 -53.403216 L74.331103 -53.425446 L73.892815 -53.059058 L73.513314 -52.281621 L72.931163 -51.895137 L72.305756 -51.365908 L71.837744 -50.881447 L71.342427 -50.337789 L70.7533 -49.996001 L70.302749 -49.798194 L69.57243 -49.75919 L68.919079 -49.7506 L68.228565 -49.626647 L67.574145 -49.681749 L66.641311 -50.070035 L66.004554 -49.885818 L65.425194 -49.853627 L64.873976 -50.337972 L64.200629 -50.516024 L63.590992 -50.647287 L63.013204 -50.772661 L62.254857 -51.003473 L61.730721 -51.041997 L61.328059 -50.950468 L61.035375 -51.003282 L60.763806 -51.370841 L60.480138 -51.815975 L60.086869 -52.053731 L59.642034 -52.46168 L59.152931 -52.53005 L59.037886 -52.72881 L59.141636 -53.096495 L59.049298 -53.455944 L58.542723 -53.726477 L57.804801 -54.24602 L57.396993 -54.533976 L57.167668 -54.359994 L56.734453 -54.175552 L56.127873 -54.073506 L55.720597 -54.049088 L55.486305 -53.698533 L54.538778 -53.878292 L54.29503 -53.682384 L53.904186 -53.770924 L53.525207 -53.968881 L52.96671 -53.955681 L52.700114 -53.679606 L51.4187 -54.092157 L51.455773 -59.372049 L54.018787 -59.305392 L53.992731 -63.531755 L56.921062 -63.761188 L56.862404 -66.811188 L59.26163 -66.937324 L59.409819 -72.410551 L61.479883 -72.438261 L62.527586 -72.45224 L62.49477 -74.119361 L61.060706 -74.356554 L61.033118 -74.834532 L60.378761 -74.865701 L60.432334 -75.339162 L57.255001 -75.491892 L57.187329 -74.016014 L54.228217 -73.919977 L54.070126 -73.140429 L53.556514 -73.125052 L53.567253 -72.334485 L49.96476 -72.28817 L49.960635 -71.680546 L49.961457 -69.936991 L48.849359 -69.78518 L48.859253 -69.063936 L48.280673 -69.186964 L48.214004 -68.673377 L46.61064 -68.464315 L46.501695 -67.676998 L46.075646 -67.732754 L45.777446 -67.939448 L45.552742 -67.928641 L45.359366 -67.918264 L44.677976 -67.879425 L44.684189 -67.430574 L44.163223 -67.220252 L43.978466 -66.854199 L43.577191 -66.917972 L43.470939 -66.09146 L41.919649 -66.040485 L41.860212 -65.7427 L41.197825 -65.599701 L41.020885 -64.940285 L39.163968 -64.756753 L39.064242 -65.594406 L37.718607 -64.811079 L37.601192 -65.675443 L37.745 -65.9338 L38.059896 -66.280002 L38.777072 -66.919343 L39.404843 -67.397032 L39.664546 -66.914606 L40.761145 -66.913813 L40.832088 -67.377049 L41.435529 -67.487016 L41.545208 -67.915771 L42.606715 -67.690313 L42.417573 -72.181268 L41.503944 -72.168556 L41.179121 -70.742977 L39.191268 -70.608056 L39.07255 -69.77295 L38.507598 -69.709008 L38.498374 -68.591782 L37.028728 -68.37925 L36.885933 -69.031393 L35.667719 -69.155716 L35.665185 -69.596917 L30.618472 -69.736227 L30.672764 -68.609392 L30.091925 -68.692166 L29.074184 -69.038337 L28.873994 -71.98757 L31.840632 -72.029833 L31.713715 -76.033481 L29.312237 -76.023099 L29.175771 -77.931078 L30.279288 -77.987437 L30.326787 -79.34474 L31.521029 -79.442273 L31.508766 -82.544058 L29.54605 -82.539934 L29.39224 -83.951097 L27.674882 -84.287251 L27.402631 -84.627937 L26.333621 -84.625918 L25.207921 -84.623051 L25.069765 -84.623865 L24.422348 -84.97804 L22.330938 -84.872907 L22.150743 -82.989783 L21.032081 -83.013496 L21.022172 -82.711489 L21.015446 -82.476064 L20.974173 -81.190267 L20.578037 -81.107477 L20.594262 -80.466163 L20.597012 -80.022863 L20.593115 -79.084996 L20.586737 -78.317986 L20.579663 -77.345055 L20.187218 -77.265113 L20.175612 -74.92427 L20.737667 -74.716017 L20.678211 -73.00272 L14.712175 -72.968801 L14.560475 -71.782921 L13.580065 -71.767096 L9.6569787 -71.707704 L6.4021617 -71.659257 L5.1118075 -71.645569 L5.1686669 -69.971087 L-4.0372229 -69.624065 L-4.1375534 -70.220674 L-8.3791229 -70.200595 L-11.700519 -67.171592 L-11.691992 -66.267986 L-11.679251 -64.996256 L-14.12433 -64.961204 L-220.49809 123.10404 L-219.05017 123.0366 L-218.92999 124.3784 L-215.60778 124.21857 L-213.84342 124.13307 L-213.88461 123.02425 L-212.51762 122.83244 L-212.46903 120.19658 L-205.91242 119.95745 L-205.9453 124.84876 L-206.41522 125.4493 L-206.21195 128.26755 L-206.95881 128.83895 L-206.87842 131.30672 L-202.347 131.12529 L-202.31944 129.28294 L-199.34175 129.2181 L-199.55563 123.38347 L-190.85389 123.0594 Z "  fill="#CCEBC5" fill-rule="evenodd" stroke="#6E6E6E" fill-opacity="1" stroke-opacity="1"  stroke-width="0.7" stroke-linecap="round" stroke-linejoin="round" stroke-miterlimit="10" />
</g>
</g>
<g clip-path="url(#cp_2)">
<g transform="matrix(4.1666667 0 0 -4.1666667 974.4075 826.77)">
<path d="M33.405806 118.77348 L33.623128 118.71049 L34.231 118.75458 L34.70344 118.6223 L34.930213 118.33883 L34.961706 118.06797 L34.760135 117.87269 L34.256197 118.04277 L33.934937 117.97348 L33.686119 117.34986 L33.059349 117.52624 L32.164861 118.02387 L31.808958 118.40497 L31.831004 118.77978 L32.309743 118.84277 L33.405806 118.77348 Z M23.005825 118.45852 L22.952283 117.94828 L22.369607 118.23805 L21.547562 118.33568 L21.235749 118.5845 L20.977484 119.14513 L21.065671 119.49474 L22.747559 119.01915 L23.005825 118.45852 Z M18.949141 121.36245 L18.766464 121.22702 L18.40111 121.49473 L18.451505 121.88528 L18.653078 122.04276 L18.927093 121.99552 L19.075125 121.59552 L18.949141 121.36245 Z M23.408975 123.29 L23.894013 122.21914 L24.309759 121.65221 L24.262516 121.38135 L23.76173 121.70891 L23.037322 122.553 L22.753858 122.28843 L22.577483 122.36087 L22.369607 122.65379 L22.382206 123.08213 L22.860943 123.27111 L23.2137 123.41599 L23.408975 123.29 Z M19.421582 125.91677 L19.024731 125.77189 L18.40111 125.86638 L18.133396 126.19078 L18.413709 126.37661 L18.766464 126.40811 L19.005834 126.36401 L19.390084 126.15614 L19.421582 125.91677 Z M25.626294 128.15929 L25.229444 128.12779 L24.958579 128.32936 L24.964877 128.60653 L25.172749 128.87739 L25.638892 128.78921 L25.796372 128.58763 L25.827865 128.34826 L25.626294 128.15929 Z M28.048335 128.23173 L27.786919 127.94511 L27.043613 128.27897 L26.741251 128.60023 L26.74755 128.87739 L27.106606 129.10417 L27.38377 129.17346 L27.575895 129.03173 L27.887705 128.76401 L28.048335 128.23173 Z M30.294001 129.13566 L29.82156 129.11047 L29.58849 129.19236 L29.563293 129.627 L29.890852 130.09314 L30.2877 130.20023 L30.627858 129.87897 L30.659354 129.48212 L30.495576 129.24905 L30.294001 129.13566 Z M28.945972 130.11834 L28.549121 130.07109 L28.39794 130.32621 L28.448335 130.67897 L28.687705 130.83015 L29.002663 130.827 L29.109749 130.46479 L28.945972 130.11834 Z M31.245178 132.34196 L30.964866 132.17188 L30.659354 132.47424 L30.785337 132.70731 L31.062502 132.70101 L31.213684 132.57503 L31.245178 132.34196 Z M37.61367 130.31991 L37.3743 130.20653 L37.015247 130.21912 L36.511311 130.427 L35.742808 131.08212 L34.77903 131.9703 L34.709738 132.28526 L34.79793 132.60022 L35.119187 132.827 L35.629422 132.7388 L36.208949 132.32936 L36.527059 131.80967 L36.738081 131.48526 L37.500285 130.71676 L37.61367 130.31991 Z M32.826278 132.45534 L32.586909 132.34196 L32.234154 132.39235 L32.158562 132.63172 L32.325492 132.90258 L32.716042 132.85534 L32.826278 132.45534 Z M31.311322 133.26479 L31.112897 133.17345 L30.964864 133.32778 L31.119195 133.564 L31.31447 133.48211 L31.311322 133.26479 Z M33.749111 133.14196 L33.431001 133.07266 L32.964861 133.40022 L32.977459 133.67109 L33.36801 133.66479 L33.75856 133.45691 L33.749111 133.14196 Z M32.838876 134.42699 L32.473523 134.04274 L31.056204 134.15613 L30.747541 134.40179 L30.68455 134.91833 L30.495576 135.23329 L30.508175 135.54825 L30.665654 135.70573 L30.905021 135.77502 L31.377461 135.68683 L31.597934 135.57345 L32.49872 135.101 L32.80738 134.74195 L32.838876 134.42699 Z M10.608998 138.00494 L10.407426 137.77187 L9.8971892 137.79076 L9.5507344 138.03643 L9.5570327 138.3073 L9.8341986 138.49627 L10.457819 138.24431 L10.608998 138.00494 Z M1.9413007 140.75768 L1.7019301 140.6443 L1.3113807 140.73249 L0.57437413 141.18603 L0.076738175 141.70887 L0.089336988 142.14351 L0.48618587 142.28839 L1.0783106 142.1939 L1.5444507 142.02383 L1.695633 141.90414 L2.079882 141.34351 L2.1050796 140.94666 L1.9413007 140.75768 Z M10.026325 142.66635 L9.0404985 142.65375 L8.8074296 142.81752 L8.8546735 143.13248 L9.2137282 143.26162 L9.6830174 143.18918 L10.029473 142.94351 L10.026325 142.66635 Z M8.3412884 143.0254 L8.1019178 142.95611 L7.9507389 143.15768 L8.0767213 143.39075 L8.3885322 143.30256 L8.3412884 143.0254 Z M11.768053 143.0569 L11.528683 142.94351 L10.942858 143.038 L10.357032 143.28997 L10.363332 143.48524 L10.646795 143.75611 L11.270416 143.61752 L11.695613 143.27422 L11.768053 143.0569 Z M1.1539001 146.72303 L0.95232937 146.66004 L0.72555531 146.84901 L0.70035768 147.24586 L0.82004298 147.47893 L1.1350042 147.47263 L1.2924824 147.34665 L1.3176801 146.91831 L1.1539001 146.72303 Z M-2.4303444 148.15925 L-1.8571179 147.35295 L-1.8256208 147.00019 L-2.0334932 146.60964 L-2.1657773 146.09941 L-2.5248332 145.99232 L-2.9909733 146.1624 L-3.5704992 146.53405 L-4.2350643 146.66004 L-4.8933311 147.19547 L-5.1956912 147.63641 L-5.1893941 147.83799 L-4.874434 147.98287 L-4.5972682 147.97657 L-4.2067187 147.88838 L-3.8098687 147.95767 L-3.3311286 148.29783 L-2.7768003 148.32303 L-2.4303444 148.15925 Z M-27.242892 153.61435 L-27.557853 153.54506 L-28.068087 153.75924 L-28.609819 154.12459 L-29.258636 154.8112 L-29.592495 155.6112 L-30.203517 156.33561 L-30.266509 156.96553 L-29.894857 157.58285 L-29.573596 157.85371 L-29.057063 157.84112 L-28.672812 157.55135 L-28.414545 156.99702 L-28.345253 156.56238 L-28.439742 156.08994 L-28.45234 155.6175 L-28.338953 155.34034 L-28.030293 155.05687 L-27.286988 154.91829 L-26.896436 154.71042 L-26.827146 154.47104 L-27.242892 153.61435 Z M-57.113699 161.33717 L-56.805039 161.0915 L-55.68378 160.43639 L-55.097955 160.15292 L-54.165674 159.68678 L-52.924731 158.98127 L-52.420795 158.7734 L-51.129459 158.38285 L-50.587729 158.13088 L-50.279067 157.84742 L-49.869618 156.97183 L-49.693241 156.26002 L-49.71337 155.78073 L-49.908313 156.14958 L-50.519861 156.14476 L-50.777376 156.20126 L-51.012612 156.23462 L-51.30659 156.3145 L-51.518316 156.38459 L-51.722718 156.48189 L-51.819042 156.79871 L-51.956701 157.10783 L-52.130513 157.17239 L-52.432013 157.32175 L-52.815953 157.52363 L-53.075358 157.88873 L-53.541087 158.2356 L-54.109573 158.29841 L-54.32447 158.17945 L-54.601445 157.90884 L-54.919661 157.28379 L-54.922056 156.72136 L-55.408805 149.81809 L-55.429027 149.52447 L-55.437338 146.88047 L-55.465632 146.23547 L-56.388399 146.24056 L-59.823357 146.23998 L-59.800921 145.90302 L-59.806844 145.66251 L-61.042718 145.61141 L-61.006109 147.75912 L-61.000089 148.54214 L-60.99315 149.75523 L-60.462618 149.83585 L-59.135185 149.92114 L-59.066781 150.84739 L-59.273902 151.09538 L-59.385809 151.39498 L-59.489116 152.32135 L-59.904019 153.61096 L-60.337689 154.38816 L-60.45112 154.59708 L-61.34989 155.25789 L-61.995958 155.47205 L-62.442676 155.69613 L-62.702187 156.0501 L-62.721198 156.57158 L-62.255226 157.47492 L-62.208246 157.72325 L-62.157753 157.84896 L-62.00188 158.08049 L-62.027076 158.7482 L-62.291641 159.18915 L-62.864869 159.83796 L-63.33101 160.00804 L-63.56408 160.24741 L-63.475891 160.40489 L-62.965656 160.43009 L-62.342036 160.3356 L-60.578258 159.89466 L-60.41448 160.12773 L-60.206608 160.63166 L-60.275898 160.94662 L-60.622354 161.1545 L-61.132588 161.24898 L-61.762509 161.18599 L-62.47432 161.24269 L-62.70739 161.33087 L-62.820774 161.48835 L-62.619199 161.75922 L-62.102666 161.9041 L-59.734167 162.15607 L-58.474326 162.12457 L-58.165666 161.9482 L-57.113699 161.33717 Z M-160.18751 187.9261 L-158.77019 187.8505 L-158.21586 187.99539 L-157.94499 187.9072 L-156.3072 188.80798 L-154.65051 188.96547 L-153.35288 188.80798 L-152.3702 188.74499 L-152.01115 188.93397 L-151.5576 189.62688 L-151.23635 189.93554 L-150.8017 190.00483 L-150.56863 189.87885 L-150.41745 189.63948 L-150.19068 189.39381 L-149.2521 189.13554 L-148.34501 187.77492 L-146.27493 185.39493 L-146.42661 185.3354 L-146.43883 184.71007 L-146.44755 184.264 L-146.46071 183.59105 L-148.62531 184.13292 L-149.05756 184.32634 L-149.03309 183.61482 L-149.0779 182.84722 L-150.39301 182.82121 L-151.47879 182.79985 L-151.50168 180.40588 L-149.90742 180.33459 L-147.05998 180.18349 L-146.87756 178.88815 L-146.77177 178.49449 L-146.43874 178.46486 L-145.86102 178.38142 L-143.78858 177.95081 L-143.86545 177.76317 L-143.93699 177.49696 L-143.94027 176.97618 L-144.00696 172.46925 L-143.55637 172.46854 L-142.8139 172.41382 L-142.8533 169.4913 L-141.34882 169.43828 L-138.41219 169.61614 L-136.97451 169.54078 L-136.02243 169.49303 L-135.98499 168.34556 L-134.7868 168.52569 L-134.42962 168.58048 L-132.45864 168.48107 L-131.66656 168.44211 L-131.26196 168.41547 L-130.92996 168.42244 L-130.09513 168.44154 L-129.87483 168.44785 L-121.5486 168.29579 L-121.58186 167.64704 L-121.60484 167.15572 L-121.62731 166.3383 L-121.65765 165.66253 L-119.00383 165.6183 L-116.67183 165.57468 L-116.60827 168.2186 L-116.56695 170.25981 L-116.54436 171.55532 L-116.53386 172.96314 L-116.44483 175.4763 L-114.05389 175.63488 L-113.83749 175.8284 L-111.42073 175.08653 L-108.66988 174.11591 L-106.3241 173.33509 L-104.42869 172.7231 L-104.16698 173.29341 L-103.2418 173.48173 L-103.22469 175.16751 L-104.40902 175.69426 L-104.31968 177.52302 L-104.61815 177.61676 L-104.41953 178.94126 L-104.34855 179.11675 L-101.90101 178.31352 L-99.198656 177.84738 L-97.812833 178.12454 L-96.943541 178.21903 L-95.998662 178.08045 L-94.675829 177.53242 L-94.090003 177.43793 L-93.856933 177.31194 L-93.825436 176.92139 L-94.045909 176.21588 L-94.335672 175.47258 L-93.441186 175.25211 L-93.283706 175.13242 L-93.302603 174.5025 L-92.874257 174.37022 L-92.534102 174.43006 L-91.255363 175.17652 L-91.21127 174.68518 L-91.34985 174.28203 L-91.50733 173.86628 L-92.07426 173.28676 L-92.275835 172.9781 L-92.326228 172.58754 L-92.263237 172.19069 L-91.878984 171.74975 L-91.645914 171.66156 L-91.167174 171.73085 L-90.386074 171.70566 L-90.058516 171.64896 L-89.636468 171.57337 L-88.899463 171.27731 L-87.658521 170.5718 L-87.339265 170.36641 L-87.515003 170.16525 L-87.786865 169.80655 L-87.70315 169.0086 L-88.804611 168.9456 L-89.138858 168.78556 L-89.814446 168.50414 L-90.328634 168.26467 L-90.687689 168.10019 L-90.557764 167.94305 L-90.006261 167.14723 L-89.611997 167.14297 L-88.634118 167.04914 L-88.556411 166.59454 L-88.570652 166.00218 L-88.684899 165.47465 L-88.396228 164.91366 L-88.417942 164.7743 L-87.627514 163.4302 L-88.3231 163.43257 L-88.408122 162.18302 L-88.069641 161.98715 L-88.014606 161.33822 L-87.382427 160.75675 L-86.650084 160.49013 L-86.960932 159.89955 L-87.727729 159.00469 L-88.134358 158.53911 L-88.464715 158.2431 L-88.700477 157.75767 L-87.58908 156.02025 L-87.361365 155.66875 L-86.681814 155.56839 L-86.312448 155.50858 L-86.318559 154.98473 L-86.31554 154.56228 L-86.32791 154.04695 L-86.361277 153.45808 L-87.681821 153.36006 L-87.680705 152.65185 L-87.695079 148.88981 L-87.693539 148.59067 L-86.279588 148.52278 L-83.643915 148.39337 L-82.794926 147.99869 L-79.796703 146.60721 L-79.583466 146.62237 L-78.086452 146.71587 L-77.310889 146.69947 L-77.568436 145.74994 L-77.742993 145.17195 L-76.400615 144.98419 L-75.162495 144.85818 L-75.156434 145.20551 L-74.303027 145.05474 L-73.25397 144.88167 L-72.397963 144.48433 L-71.878735 144.6063 L-71.398168 144.00466 L-70.115923 143.48791 L-69.598676 143.49508 L-69.081685 143.2753 L-68.059892 143.13718 L-67.335897 143.18074 L-67.423579 145.99628 L-69.794799 146.08531 L-69.818969 149.52388 L-68.596456 149.51933 L-66.521472 149.49197 L-66.550436 149.03296 L-66.499858 147.90013 L-66.499153 145.70484 L-62.535236 145.59135 L-62.502709 144.43923 L-61.283216 144.42682 L-59.23954 144.39974 L-59.030823 143.71744 L-58.750319 143.16211 L-58.45529 142.62545 L-57.992061 142.12096 L-57.355535 141.5435 L-56.021847 140.63906 L-55.681288 140.29919 L-54.615847 139.64519 L-53.997006 139.45335 L-52.968183 139.34288 L-52.707094 139.28736 L-52.452368 139.23475 L-51.882287 139.05707 L-51.405213 138.74157 L-51.433755 138.30952 L-51.633956 138.02183 L-51.047755 137.98469 L-50.908869 138.55044 L-50.625643 138.5443 L-50.138554 138.53895 L-46.013825 138.47582 L-45.447749 138.46852 L-44.634956 138.46346 L-43.173005 138.43366 L-40.764092 138.4794 L-40.744968 139.23803 L-40.743806 141.21574 L-40.740603 141.41042 L-40.75435 141.63269 L-42.552013 141.53133 L-42.984906 141.55669 L-42.918981 142.60839 L-43.464365 142.58868 L-44.168806 142.89383 L-45.169796 143.43435 L-46.065114 144.21341 L-46.45795 144.33202 L-46.707057 144.47275 L-46.880639 144.55548 L-47.083844 144.72978 L-47.16301 145.00918 L-47.437381 145.31004 L-48.023822 145.57267 L-48.661278 146.31809 L-48.857397 146.50418 L-48.969163 146.72249 L-49.154805 147.09683 L-49.270044 147.32641 L-49.412365 147.57955 L-49.467953 147.81583 L-48.700062 148.27638 L-48.502692 147.7183 L-48.04915 146.9624 L-45.901123 144.81437 L-45.050731 144.08366 L-44.244434 143.51044 L-43.034986 143.08839 L-42.209791 142.94351 L-41.031841 142.91831 L-40.433418 143.0191 L-39.482237 143.42855 L-39.123184 143.45374 L-38.972003 143.25217 L-38.83972 142.42697 L-38.335786 141.93564 L-38.058621 142.08682 L-37.857044 142.28209 L-37.875944 142.94981 L-38.518461 144.03327 L-38.669642 144.34823 L-38.619249 144.62539 L-38.064917 144.84587 L-37.699564 145.14823 L-37.731061 145.50728 L-38.146808 146.10571 L-38.959405 146.67893 L-39.532632 147.28366 L-39.910583 147.96397 L-39.973575 148.5183 L-39.715308 148.86476 L-38.902712 148.84586 L-38.594052 148.63799 L-37.825547 147.91358 L-36.912164 146.82382 L-36.452322 146.33878 L-35.76571 145.375 L-34.965712 144.52461 L-34.03973 143.75611 L-32.918472 142.93721 L-31.652333 141.60178 L-31.293278 140.73249 L-31.098004 140.25375 L-30.757847 139.8884 L-30.285406 139.71832 L-29.737377 139.70572 L-29.573596 139.8569 L-29.372024 140.20336 L-29.264936 141.14824 L-29.025566 141.37501 L-28.546828 141.4443 L-27.765726 141.34351 L-26.946832 141.08524 L-26.48069 140.87737 L-26.209824 140.47422 L-26.07754 139.64273 L-25.857068 139.0884 L-25.472818 138.64745 L-24.855496 138.11832 L-24.51534 137.75297 L-24.43975 137.5136 L-24.527938 137.20494 L-24.584633 136.65061 L-24.168882 135.8947 L-23.709041 135.40967 L-23.280696 135.20179 L-22.68857 135.18289 L-21.98306 135.28368 L-20.868103 135.64904 L-20.307473 136.10888 L-19.898026 136.64431 L-19.564167 137.38761 L-19.387791 138.09313 L-19.406688 138.79864 L-19.595665 139.15769 L-20.320073 139.8884 L-20.464954 140.48052 L-21.031881 141.28682 L-21.447629 142.00493 L-21.756291 142.36398 L-22.524793 143.0569 L-22.738965 143.7687 L-23.079122 144.21595 L-23.885419 145.06004 L-24.572034 145.98602 L-24.956283 146.30728 L-26.323211 148.19704 L-26.757854 148.24743 L-26.984626 148.41121 L-26.95943 149.47578 L-27.299587 150.03641 L-27.255491 150.23168 L-26.93423 150.30097 L-26.146832 150.28208 L-25.485416 149.98601 L-24.949986 149.50098 L-23.961009 148.29153 L-23.305892 147.7246 L-21.636605 146.77342 L-20.559441 145.87894 L-20.212987 145.43799 L-19.608263 144.09941 L-19.469678 143.88209 L-18.972044 143.43485 L-18.190942 143.13878 L-18.008265 142.62225 L-17.737399 142.33879 L-17.233464 142.16871 L-16.64134 142.2317 L-16.373625 142.49941 L-16.464961 142.93721 L-16.452362 143.28997 L-16.087009 143.67422 L-15.885435 144.02067 L-15.828743 144.68839 L-15.664962 144.92146 L-15.350003 144.91516 L-14.732682 144.34823 L-14.298038 144.29784 L-13.983077 144.48681 L-13.894889 144.83957 L-14.235046 145.23642 L-15.242917 145.93563 L-15.583075 146.41437 L-15.690158 146.89311 L-15.595674 147.44114 L-15.387797 147.83169 L-15.186225 147.98287 L-14.871264 147.93248 L-14.335833 147.44744 L-14.102761 147.40334 L-13.872841 147.88838 L-13.655517 147.7435 L-13.636621 146.99389 L-13.491738 146.59704 L-13.183078 146.35138 L-12.590954 146.45846 L-12.200402 146.28839 L-11.740561 145.72776 L-11.469696 145.55768 L-10.883872 145.50728 L-10.499619 145.10413 L-10.203558 144.49941 L-10.172061 144.14666 L-10.32954 143.99547 L-11.003556 143.97028 L-11.047649 143.775 L-10.442925 142.85532 L-9.9767863 142.48997 L-9.309071 142.54666 L-9.0004092 142.54036 L-8.7988362 142.53406 L-8.5216703 142.40808 L-8.2571044 142.12461 L-8.1059221 141.80965 L-8.0996249 140.70729 L-7.9169479 140.10887 L-7.6460803 139.98289 L-7.0917531 139.93249 L-6.8901778 140.20336 L-6.6508072 140.35454 L-6.2350601 139.74981 L-5.3972676 137.00966 L-5.239787 135.59234 L-4.5090811 134.86164 L-4.0681363 135.20179 L-3.5956957 135.23329 L-3.2051462 135.06321 L-2.4051479 134.09943 L-1.8256208 133.60809 L-1.1264107 133.39392 L-0.3957013 132.62542 L0.076738175 132.61282 L0.75075294 132.90888 L0.99642064 133.14196 L1.5255548 133.91676 L2.0483884 134.21282 L2.4011437 134.20652 L2.7853915 133.99864 L3.0940544 133.75298 L3.4909044 133.70258 L4.1649169 133.96085 L4.479878 133.95455 L4.9838134 133.74668 L5.95389 133.16715 L6.4893224 132.44274 L7.6609742 132.21597 L8.2531013 132.20337 L8.7318379 132.54353 L8.9271126 132.37975 L9.4499473 131.42227 L9.5192374 130.98763 L9.3554597 130.67267 L8.8011302 130.64747 L8.3286896 130.58448 L8.0830219 130.27582 L8.0326266 129.80338 L8.2531013 129.32464 L8.6436496 129.04117 L9.8153015 128.88999 L10.363332 128.71992 L10.905063 128.34826 L11.175928 128.0648 L11.270416 127.19551 L11.698761 126.94984 L12.164903 126.81756 L12.511358 126.57189 L13.191671 125.41284 L13.733403 125.12307 L14.829465 124.82071 L15.566471 124.52465 L16.026312 124.00181 L16.057809 123.56717 L15.868831 122.58449 L16.064108 122.38292 L16.574344 122.25064 L16.763318 122.09316 L17.021585 121.53253 L17.008986 120.9782 L16.725523 120.75143 L16.568043 120.56245 L16.429462 119.97033 L16.492453 119.3782 L16.681427 119.06324 L17.034185 118.93096 L18.180639 119.01915 L18.772764 119.20182 L19.686147 119.33411 L20.070398 119.12623 L20.334965 118.76718 L20.404256 118.21285 L19.875122 117.67742 L18.407409 117.24277 L16.668828 116.89632 L15.793242 116.75773 L15.434187 116.57506 L15.068833 116.10892 L14.823164 115.68057 L14.495606 115.34041 L11.931831 115.01286 L10.268842 114.74199 L8.3034931 114.79238 L6.8546754 115.18293 L5.9097964 115.20813 L5.355467 115.06955 L3.8247604 115.06955 L1.6389395 115.95144 L0.44209117 116.65695 L-0.18152948 116.90892 L-1.2020013 117.12939 L-2.9279804 117.41285 L-4.609867 117.8538 L-5.5043541 118.18765 L-5.8886053 118.43332 L-6.6130119 119.4034 L-7.3185214 119.61757 L-8.0492308 120.2286 L-8.716945 120.28529 L-8.565765 119.96403 L-8.5405674 119.3719 L-8.7484409 119.02545 L-9.3468662 118.68529 L-11.173635 118.14356 L-11.52639 118.07427 L-11.847648 118.00497 L-14.839767 118.08057 L-15.154727 117.97348 L-15.67756 117.63332 L-16.282285 117.0538 L-16.603545 116.90892 L-16.836615 116.95301 L-17.453937 117.48214 L-17.806692 117.45065 L-17.926375 117.29946 L-17.938973 116.94041 L-17.712202 116.66325 L-17.441338 116.34199 L-16.855512 116.12781 L-16.39567 115.83805 L-16.24449 115.56089 L-16.055515 115.23963 L-16.156302 114.37664 L-16.087009 113.94199 L-15.828743 113.26168 L-15.337404 112.58136 L-13.95788 111.24593 L-12.918511 110.16247 L-11.916939 109.41917 L-11.022452 109.00342 L-10.165762 108.74515 L-9.2145821 108.79555 L-8.5090715 108.70106 L-7.8476555 108.3672 L-7.3563179 107.605 L-6.8586808 107.27744 L-6.5437219 107.11366 L-2.8082951 106.93098 L0.13972995 106.85539 L1.5570484 106.89949 L2.4641343 106.87429 L4.1082256 106.55303 L6.3318418 105.86642 L9.7138931 105.78548 L9.7985649 105.37774 L9.7663584 104.8127 L9.7874468 103.43396 L9.8225369 102.71481 L12.963217 102.66795 L13.156049 102.71551 L13.495367 102.71607 L13.764682 102.69596 L14.005575 102.67628 L14.166005 102.64168 L18.554505 102.5131 L18.548328 101.6881 L18.565318 99.913 L18.570477 99.546607 L18.543406 97.706317 L18.491406 97.148501 L18.464817 96.416611 L17.933113 96.435643 L17.629163 96.442922 L10.721567 96.641345 L7.2241479 96.744183 L6.7920372 90.121914 L8.1625661 90.026381 L8.0604962 88.115072 L9.4172156 88.041511 L9.3372561 83.158003 L14.330022 82.803488 L14.068164 77.642524 L11.582056 77.826551 L11.444142 70.44625 L7.4550048 70.636868 L-2.7018402 70.718647 L-3.0144419 70.175703 L-3.3830206 69.005343 L-12.415705 69.337505 L-12.259705 73.04663 L-14.667613 73.112942 L-14.604516 78.728682 L-17.787915 78.856395 L-17.792096 81.942556 L-20.282101 82.088314 L-20.176978 85.19587 L-20.135368 86.492413 L-23.338814 86.641986 L-23.243896 92.406455 L-27.61811 92.423089 L-27.837565 85.946863 L-34.21921 86.082012 L-34.103409 88.498055 L-34.092281 88.759839 L-33.966263 91.325612 L-30.825374 91.220882 L-30.711665 96.309144 L-33.218523 96.454032 L-33.089127 102.06318 L-36.959251 102.24097 L-37.099557 104.12465 L-37.098767 105.91498 L-38.215823 106.0481 L-40.749682 105.98526 L-40.812344 104.48733 L-40.882126 104.31477 L-40.784467 103.42079 L-44.690191 103.544 L-44.645937 98.399169 L-40.244049 98.209004 L-40.477355 91.22869 L-42.985474 91.290941 L-42.988413 87.715912 L-70.87532 88.040161 L-70.977973 85.551092 L-67.279922 85.423647 L-67.199753 82.958055 L-64.688993 82.798062 L-64.843905 77.843576 L-62.318695 77.701732 L-62.374656 75.223075 L-64.037078 75.267524 L-64.313688 75.275049 L-70.102329 75.430432 L-70.371596 75.437877 L-71.211526 75.460085 L-71.213265 76.076519 L-71.217251 78.581435 L-74.329664 78.782457 L-74.34243 83.092626 L-76.726399 83.075289 L-76.713435 83.423895 L-76.710626 83.584953 L-76.582424 88.120331 L-79.877269 88.255012 L-79.7822 91.086038 L-84.861209 91.249035 L-85.098162 91.243887 L-98.267062 91.677134 L-103.00779 91.760328 L-103.2756 91.765207 L-108.27181 91.850975 L-108.40433 93.203244 L-122.27376 93.609939 L-122.80193 93.625457 L-122.9238 95.98982 L-126.11373 96.16571 L-126.45546 96.238476 L-126.59494 96.163356 L-130.05261 96.261075 L-130.75224 96.279272 L-131.01718 96.313732 L-132.75275 96.333476 L-135.22539 96.405235 L-135.21363 93.184791 L-144.78653 93.174575 L-156.77977 93.059225 L-157.04485 94.525747 L-157.57621 95.631869 L-158.78111 96.289 L-159.85639 96.748854 L-159.88369 95.373572 L-165.67673 98.139844 L-170.82194 100.71261 L-174.83528 100.73705 L-174.77273 103.82023 L-173.69022 103.87254 L-173.63141 105.5754 L-173.60335 106.62108 L-173.70507 110.92511 L-173.71123 111.1417 L-173.72329 111.74581 L-186.11285 111.98861 L-186.1054 115.75108 L-191.03154 115.85305 L-190.85389 123.0594 L-199.55563 123.38347 L-199.34175 129.2181 L-202.31944 129.28294 L-202.347 131.12529 L-206.87842 131.30672 L-206.95881 128.83895 L-206.21195 128.26755 L-206.41522 125.4493 L-205.9453 124.84876 L-205.91242 119.95745 L-212.46903 120.19658 L-212.51762 122.83244 L-213.88461 123.02425 L-213.84342 124.13307 L-215.60778 124.21857 L-218.92999 124.3784 L-219.05017 123.0366 L-220.49809 123.10404 L-224.17925 126.45625 L-224.1518 127.13117 L-221.6812 129.68403 L-221.59899 129.85778 L-165.21038 190.05819 L-164.51506 189.65838 L-163.11034 189.02846 L-162.68199 188.78279 L-161.08829 188.10877 L-160.18751 187.9261 Z "  fill="#FFED6F" fill-rule="evenodd" stroke="#6E6E6E" fill-opacity="1" stroke-opacity="1"  stroke-width="0.7" stroke-linecap="round" stroke-linejoin="round" stroke-miterlimit="10" />
</g>
</g>
<g clip-path="url(#cp_2)">
<g transform="matrix(4.1666667 0 0 -4.1666667 974.4075 826.77)">
<path d="M18.554505 102.5131 L14.166005 102.64168 L14.005575 102.67628 L13.764682 102.69596 L13.495367 102.71607 L13.156049 102.71551 L12.963217 102.66795 L9.8225369 102.71481 L9.7874468 103.43396 L9.7663584 104.8127 L9.7985649 105.37774 L10.10479 105.70558 L10.218058 105.81812 L10.366954 105.96129 L10.671992 106.10579 L11.119234 106.56563 L11.597292 106.71186 L11.812869 106.58046 L12.018659 106.42225 L12.406206 106.40036 L12.50101 106.6399 L12.846448 106.59203 L13.097251 106.53156 L13.425532 106.47065 L14.104167 106.47668 L14.100001 105.26922 L16.854578 105.35942 L17.595818 105.56772 L18.531651 105.9457 L18.567163 103.8409 L18.554505 102.5131 Z "  fill="#8DD3C7" fill-rule="evenodd" stroke="#6E6E6E" fill-opacity="1" stroke-opacity="1"  stroke-width="0.7" stroke-linecap="round" stroke-linejoin="round" stroke-miterlimit="10" />
</g>
</g>
<g clip-path="url(#cp_2)">
<g transform="matrix(4.1666667 0 0 -4.1666667 974.4075 826.77)">
<path d="M217.34244 -144.95513 L217.49992 -145.27009 L216.63064 -145.26379 L216.41016 -145.20709 L215.92513 -145.10631 L215.44954 -145.29844 L215.29521 -145.02442 L215.37709 -144.07954 L215.61646 -143.84647 L215.93142 -144.23702 L217.34244 -144.95513 Z M209.47247 -141.45125 L208.80389 -141.3781 L205.35705 -141.58742 L205.46595 -143.54924 L205.51893 -144.3134 L205.7338 -144.29402 L211.38061 -144.26777 L211.40079 -143.61879 L210.99059 -142.97992 L210.40825 -142.33597 L209.95831 -141.8564 L209.47247 -141.45125 L209.8023 -141.37718 L209.88419 -140.90474 L209.72671 -140.11104 L209.89049 -139.80238 L210.20545 -139.80238 L210.51411 -140.35671 L211.14403 -141.14411 L211.61647 -141.226 L211.93143 -140.83545 L212.32198 -140.75986 L212.71883 -140.4449 L212.9582 -140.60238 L213.10938 -140.99923 L214.04796 -142.41655 L214.91095 -142.89529 L215.14402 -143.44962 L214.82276 -144.70316 L214.46371 -145.92521 L215.52828 -145.57875 L216.08261 -145.57875 L217.10308 -145.81812 L217.41804 -146.13308 L217.25426 -146.60552 L216.54245 -146.99607 L215.40544 -146.67796 L215.67946 -147.07166 L216.30938 -147.46851 L216.53409 -147.69652 L166.7062 -168.30921 L166.77171 -155.50264 L167.01758 -143.60419 L167.01611 -130.75705 L167.01228 -118.19557 L177.59582 -118.26603 L185.06491 -118.2861 L185.21957 -118.29882 L186.83738 -118.461 L187.03049 -118.48179 L187.2775 -118.46318 L188.18892 -118.48815 L189.22698 -118.48981 L191.08647 -118.49632 L193.68265 -120.02919 L194.78501 -121.14415 L194.99288 -121.5662 L195.07477 -121.72998 L195.49052 -122.56147 L196.11414 -123.04021 L197.84642 -123.51895 L198.56768 -124.02604 L198.94248 -124.7095 L198.93618 -125.86855 L198.93618 -126.12682 L199.79917 -126.68115 L200.3409 -127.70792 L200.4039 -128.94256 L200.41649 -129.12524 L200.01335 -130.14571 L200.56767 -130.70004 L202.45114 -131.41815 L203.39602 -131.58193 L203.79287 -131.18508 L203.95035 -130.40398 L203.79917 -129.4528 L202.87318 -125.83076 L202.48893 -123.61974 L202.7283 -123.1536 L203.04326 -122.99612 L203.35822 -123.31108 L204.44168 -127.0969 L204.42908 -128.98666 L204.89523 -130.48587 L205.60074 -131.19768 L206.23066 -131.59453 L206.6968 -132.06697 L206.77239 -133.16933 L206.73459 -133.82444 L206.6842 -134.74412 L206.45113 -134.74412 L206.29365 -134.42916 L206.06058 -134.1898 L205.8968 -134.42916 L206.28735 -135.53153 L208.2401 -139.00238 L208.71254 -139.39923 L208.94561 -139.87167 L208.70624 -140.11104 L208.46687 -140.10474 L208.39128 -140.34411 L209.47247 -141.45125 Z "  fill="#FFFFB3" fill-rule="evenodd" stroke="#6E6E6E" fill-opacity="1" stroke-opacity="1"  stroke-width="0.7" stroke-linecap="round" stroke-linejoin="round" stroke-miterlimit="10" />
</g>
</g>
<g clip-path="url(#cp_2)">
<g transform="matrix(4.1666667 0 0 -4.1666667 974.4075 826.77)">
<path d="M134.97186 -54.421156 L134.65285 -54.328539 L134.26229 -54.322237 L134.256 -54.523814 L134.61505 -54.876568 L134.37568 -55.506488 L134.37568 -56.174205 L134.2119 -56.608848 L133.50639 -56.684439 L132.98986 -57.081288 L132.75679 -57.352152 L132.83238 -57.704907 L132.98986 -58.026168 L134.01663 -58.063964 L134.41218 -58.226448 L134.54628 -58.564314 L134.67832 -58.878022 L134.36308 -59.090734 L134.08592 -59.367896 L134.16781 -59.758449 L134.71584 -60.350573 L135.0308 -60.589942 L135.18424 -60.449841 L135.27101 -60.858013 L135.41125 -61.638009 L135.40079 -61.953741 L135.45066 -62.209224 L135.64451 -63.711514 L135.34642 -63.674546 L130.72556 -63.586542 L130.7168 -55.130606 L130.77438 -54.078658 L130.79077 -53.851935 L134.16391 -53.836952 L134.97186 -54.421156 Z "  fill="#BEBADA" fill-rule="evenodd" stroke="#6E6E6E" fill-opacity="1" stroke-opacity="1"  stroke-width="0.7" stroke-linecap="round" stroke-linejoin="round" stroke-miterlimit="10" />
</g>
</g>
<g clip-path="url(#cp_2)">
<g transform="matrix(4.1666667 0 0 -4.1666667 974.4075 826.77)">
<path d="M-62.208246 157.72325 L-62.255226 157.47492 L-62.721198 156.57158 L-62.702187 156.0501 L-62.442676 155.69613 L-61.995958 155.47205 L-61.34989 155.25789 L-60.45112 154.59708 L-60.337689 154.38816 L-59.904019 153.61096 L-59.489116 152.32135 L-59.385809 151.39498 L-59.273902 151.09538 L-59.066781 150.84739 L-59.135185 149.92114 L-60.462618 149.83585 L-60.99315 149.75523 L-61.000089 148.54214 L-61.006109 147.75912 L-61.042718 145.61141 L-59.806844 145.66251 L-59.800921 145.90302 L-59.823357 146.23998 L-56.388399 146.24056 L-55.465632 146.23547 L-55.437338 146.88047 L-55.429027 149.52447 L-55.408805 149.81809 L-54.922056 156.72136 L-54.919661 157.28379 L-54.601445 157.90884 L-54.32447 158.17945 L-54.109573 158.29841 L-53.541087 158.2356 L-53.075358 157.88873 L-52.815953 157.52363 L-52.432013 157.32175 L-52.130513 157.17239 L-51.956701 157.10783 L-51.819042 156.79871 L-51.722718 156.48189 L-51.518316 156.38459 L-51.30659 156.3145 L-51.012612 156.23462 L-50.777376 156.20126 L-50.519861 156.14476 L-49.908313 156.14958 L-49.71337 155.78073 L-49.794028 153.86002 L-49.340486 150.30097 L-49.050724 149.26791 L-48.700062 148.27638 L-49.467953 147.81583 L-49.412365 147.57955 L-49.270044 147.32641 L-49.154805 147.09683 L-48.969163 146.72249 L-48.857397 146.50418 L-48.661278 146.31809 L-48.023822 145.57267 L-47.437381 145.31004 L-47.16301 145.00918 L-47.083844 144.72978 L-46.880639 144.55548 L-46.707057 144.47275 L-46.45795 144.33202 L-46.065114 144.21341 L-45.169796 143.43435 L-44.168806 142.89383 L-43.464365 142.58868 L-42.918981 142.60839 L-42.984906 141.55669 L-42.552013 141.53133 L-40.75435 141.63269 L-40.740603 141.41042 L-40.743806 141.21574 L-40.744968 139.23803 L-40.764092 138.4794 L-43.173005 138.43366 L-44.634956 138.46346 L-45.447749 138.46852 L-46.013825 138.47582 L-50.138554 138.53895 L-50.625643 138.5443 L-50.908869 138.55044 L-51.047755 137.98469 L-51.633956 138.02183 L-51.433755 138.30952 L-51.405213 138.74157 L-51.882287 139.05707 L-52.452368 139.23475 L-52.707094 139.28736 L-52.968183 139.34288 L-53.997006 139.45335 L-54.615847 139.64519 L-55.681288 140.29919 L-56.021847 140.63906 L-57.355535 141.5435 L-57.992061 142.12096 L-58.45529 142.62545 L-58.750319 143.16211 L-59.030823 143.71744 L-59.23954 144.39974 L-61.283216 144.42682 L-62.502709 144.43923 L-62.535236 145.59135 L-66.499153 145.70484 L-66.499858 147.90013 L-66.550436 149.03296 L-66.521472 149.49197 L-68.596456 149.51933 L-69.818969 149.52388 L-69.794799 146.08531 L-67.423579 145.99628 L-67.335897 143.18074 L-68.059892 143.13718 L-69.081685 143.2753 L-69.598676 143.49508 L-70.115923 143.48791 L-71.398168 144.00466 L-71.878735 144.6063 L-72.397963 144.48433 L-73.25397 144.88167 L-74.303027 145.05474 L-75.156434 145.20551 L-75.162495 144.85818 L-76.400615 144.98419 L-77.742993 145.17195 L-77.568436 145.74994 L-77.310889 146.69947 L-78.086452 146.71587 L-79.583466 146.62237 L-79.796703 146.60721 L-82.794926 147.99869 L-83.643915 148.39337 L-86.279588 148.52278 L-87.693539 148.59067 L-87.695079 148.88981 L-87.680705 152.65185 L-87.681821 153.36006 L-86.361277 153.45808 L-86.32791 154.04695 L-86.31554 154.56228 L-86.318559 154.98473 L-86.312448 155.50858 L-86.681814 155.56839 L-87.361365 155.66875 L-87.58908 156.02025 L-88.700477 157.75767 L-88.464715 158.2431 L-88.134358 158.53911 L-87.727729 159.00469 L-86.960932 159.89955 L-86.650084 160.49013 L-87.382427 160.75675 L-88.014606 161.33822 L-88.069641 161.98715 L-88.408122 162.18302 L-88.3231 163.43257 L-87.627514 163.4302 L-88.417942 164.7743 L-88.396228 164.91366 L-88.684899 165.47465 L-88.570652 166.00218 L-88.556411 166.59454 L-88.634118 167.04914 L-89.611997 167.14297 L-90.006261 167.14723 L-90.557764 167.94305 L-90.687689 168.10019 L-90.328634 168.26467 L-89.814446 168.50414 L-89.138858 168.78556 L-88.804611 168.9456 L-87.70315 169.0086 L-87.786865 169.80655 L-87.515003 170.16525 L-87.339265 170.36641 L-86.858522 170.06157 L-86.379783 169.7529 L-85.063249 169.0096 L-84.168762 168.43007 L-82.757742 166.89937 L-81.560895 165.92299 L-80.823887 165.43165 L-80.282157 165.14189 L-79.475858 164.2537 L-79.179798 163.73087 L-78.562477 161.70883 L-78.039643 160.66946 L-77.542004 160.02694 L-76.181378 157.90411 L-75.570356 157.25529 L-75.186103 156.85214 L-74.801852 156.60647 L-73.346738 156.4112 L-72.080599 156.69466 L-70.946742 157.88521 L-70.738869 158.42694 L-70.56249 159.05686 L-70.310524 159.59859 L-70.064853 159.90725 L-69.428636 160.28521 L-68.313676 160.68836 L-67.016042 160.65686 L-66.266438 160.71355 L-65.749902 160.82064 L-65.044392 160.80174 L-64.886912 160.63796 L-64.679039 159.72458 L-64.294786 159.35923 L-63.236522 159.25214 L-63.003453 158.97497 L-62.644398 157.78442 L-62.208246 157.72325 Z "  fill="#FB8072" fill-rule="evenodd" stroke="#6E6E6E" fill-opacity="1" stroke-opacity="1"  stroke-width="0.7" stroke-linecap="round" stroke-linejoin="round" stroke-miterlimit="10" />
</g>
</g>
<g clip-path="url(#cp_2)">
<g transform="matrix(4.1666667 0 0 -4.1666667 974.4075 826.77)">
<path d="M-104.34855 179.11675 L-104.41953 178.94126 L-104.61815 177.61676 L-104.31968 177.52302 L-104.40902 175.69426 L-103.22469 175.16751 L-103.2418 173.48173 L-104.16698 173.29341 L-104.42869 172.7231 L-106.3241 173.33509 L-108.66988 174.11591 L-111.42073 175.08653 L-113.83749 175.8284 L-114.05389 175.63488 L-116.44483 175.4763 L-116.53386 172.96314 L-116.54436 171.55532 L-116.56695 170.25981 L-116.60827 168.2186 L-116.67183 165.57468 L-119.00383 165.6183 L-121.65765 165.66253 L-121.62731 166.3383 L-121.60484 167.15572 L-121.58186 167.64704 L-121.5486 168.29579 L-129.87483 168.44785 L-130.09513 168.44154 L-130.92996 168.42244 L-131.26196 168.41547 L-131.66656 168.44211 L-132.45864 168.48107 L-134.42962 168.58048 L-134.7868 168.52569 L-135.98499 168.34556 L-136.02243 169.49303 L-136.97451 169.54078 L-138.41219 169.61614 L-141.34882 169.43828 L-142.8533 169.4913 L-142.8139 172.41382 L-143.55637 172.46854 L-144.00696 172.46925 L-143.94027 176.97618 L-143.93699 177.49696 L-143.86545 177.76317 L-143.78858 177.95081 L-145.86102 178.38142 L-146.43874 178.46486 L-146.77177 178.49449 L-146.87756 178.88815 L-147.05998 180.18349 L-149.90742 180.33459 L-151.50168 180.40588 L-151.47879 182.79985 L-150.39301 182.82121 L-149.0779 182.84722 L-149.03309 183.61482 L-149.05756 184.32634 L-148.62531 184.13292 L-146.46071 183.59105 L-146.44755 184.264 L-146.43883 184.71007 L-146.42661 185.3354 L-146.27493 185.39493 L-145.71195 184.54972 L-144.86785 183.70563 L-143.99226 183.1954 L-143.46943 182.88044 L-142.34817 182.09934 L-141.77495 181.6143 L-141.07574 181.08517 L-140.08046 180.22847 L-139.53243 179.90092 L-138.83322 179.64265 L-136.43323 179.54186 L-134.21591 179.95761 L-130.69465 180.77021 L-129.18285 181.31824 L-127.87891 181.6017 L-126.08994 182.14343 L-125.41592 182.28201 L-124.76081 182.31981 L-124.0364 182.3639 L-122.73246 182.48989 L-122.14034 182.66626 L-120.47735 182.89933 L-118.94665 182.70406 L-115.62067 182.14343 L-114.36083 182.06784 L-112.43327 181.85997 L-111.34351 181.5954 L-110.24745 181.17335 L-108.2569 180.60643 L-105.56715 179.51666 L-104.34855 179.11675 Z "  fill="#80B1D3" fill-rule="evenodd" stroke="#6E6E6E" fill-opacity="1" stroke-opacity="1"  stroke-width="0.7" stroke-linecap="round" stroke-linejoin="round" stroke-miterlimit="10" />
</g>
</g>
<g clip-path="url(#cp_2)">
<g transform="matrix(4.1666667 0 0 -4.1666667 974.4075 826.77)">
<path d="M209.47247 -141.45125 L209.95831 -141.8564 L210.40825 -142.33597 L210.99059 -142.97992 L211.40079 -143.61879 L211.38061 -144.26777 L205.7338 -144.29402 L205.51893 -144.3134 L205.46595 -143.54924 L205.35705 -141.58742 L208.80389 -141.3781 L209.47247 -141.45125 Z "  fill="#FDB462" fill-rule="evenodd" stroke="#6E6E6E" fill-opacity="1" stroke-opacity="1"  stroke-width="0.7" stroke-linecap="round" stroke-linejoin="round" stroke-miterlimit="10" />
</g>
</g>
</g>
<!-- Begin_Label-->
<clipPath id="cp_3">
<path d="M1948.815 0 L9.1789909e-14 4.5474735e-13 L9.1789909e-14 1653.54 L1948.815 1653.54 Z " />
</clipPath>
<g clip-path="url(#cp_3)">
<g id="EmbdFile__1" transform="matrix(1 0 0 1 9.1789909e-14 4.5474735e-13)">
<g>
<g transform="scale(1,1)">
</g>
</g>
</g>
</g>
<!-- End_Label-->
</g>
</g>
</svg>
