<?xml version="1.0" encoding="utf-8" standalone="no"?>
<!DOCTYPE svg PUBLIC "-//W3C//DTD SVG 1.1//EN" "http://www.w3.org/Graphics/SVG/1.1/DTD/svg11.dtd">
<svg version="1.1" xmlns="http://www.w3.org/2000/svg" xmlns:xlink="http://www.w3.org/1999/xlink" width="468pt" height="397pt" viewBox="0 0 468 397" xml:space="preserve" enable-background="new 0 0 468 397">
<g transform="scale(0.24,0.24)">
<g>
	<rect x="0" y="0" width="1948.815" height="1653.54" fill="#FFFFFF" fill-opacity="0" />
</g>
<g id="Map_Frame">
<g id="rivers">
<clipPath id="cp_2">
<path d="M1948.815 4.5474735e-13 L9.1789909e-14 4.5474735e-13 L9.1789909e-14 1653.54 L1948.815 1653.54 Z " />
</clipPath>
<g clip-path="url(#cp_2)">
<g transform="matrix(4.1666667 0 0 -4.1666667 974.4075 826.77)">
<path d="M-61.019203 155.10097 L-61.271171 156.13403 L-61.296368 156.60647 L-60.962511 157.42537 L-60.704243 158.24427 L-60.553062 159.42222 L-60.578259 159.89466 "  stroke="#0070FF" fill="none" stroke-opacity="1" stroke-width="1" stroke-linecap="round" stroke-linejoin="round" stroke-miterlimit="10" />
</g>
</g>
<g clip-path="url(#cp_2)">
<g transform="matrix(4.1666667 0 0 -4.1666667 974.4075 826.77)">
<path d="M-61.019203 155.10097 L-61.34204 155.27265 L-62.108965 155.68049 L-62.555216 155.84964 L-62.890065 155.97655 L-63.154632 156.18443 L-63.223924 156.57498 L-63.097939 156.96553 L-62.644397 157.78442 "  stroke="#0070FF" fill="none" stroke-opacity="1" stroke-width="1" stroke-linecap="round" stroke-linejoin="round" stroke-miterlimit="10" />
</g>
</g>
<g clip-path="url(#cp_2)">
<g transform="matrix(4.1666667 0 0 -4.1666667 974.4075 826.77)">
<path d="M-197.2961 135.39077 L-196.89925 135.41596 L-196.62208 135.32778 L-195.96067 135.1199 L-195.14177 134.77975 L-194.07721 134.83014 L-193.47878 135.28998 L-193.38429 135.83801 L-193.27721 136.16872 L-192.67878 137.16084 L-191.98587 137.96714 L-191.29296 138.89312 L-191.11658 139.56084 L-190.86461 140.26005 L-190.25989 140.75769 L-189.4284 141.00965 L-188.94966 141.23643 L-188.26304 141.84745 L-187.65832 142.30099 L-186.66935 142.59075 L-186.46777 142.74194 L-185.441 144.29154 L-184.52132 144.94036 L-183.45045 145.22382 L-183.00321 145.64587 L-182.54967 146.45846 L-182.2977 147.00649 L-181.99534 148.14035 L-181.98904 148.41751 L-182.08983 148.92775 L-182.35439 149.3309 L-182.58746 149.57027 L-183.62683 150.42696 L-183.76541 150.98129 L-183.63943 151.33404 L-183.44416 151.44743 L-182.91502 151.98286 L-182.90242 152.4553 L-183.47565 153.17971 L-183.57644 153.65215 L-183.60164 154.20648 L-183.46935 154.91199 L-182.99691 156.19703 L-182.42998 156.97183 L-182.09613 157.51356 L-182.28825 157.73718 L-182.96542 157.50096 L-183.39691 157.51041 L-183.46305 158.14348 L-183.13549 158.60332 L-182.68825 158.94978 L-182.15912 159.22064 L-181.89455 159.35922 L-181.33392 159.73718 L-180.20322 160.73875 L-179.67723 161.31198 L-179.46306 161.77812 L-179.27408 163.06945 L-178.70716 163.61118 L-178.3922 163.59859 L-178.00795 163.39071 L-177.69928 162.94977 L-177.39692 162.62851 L-176.33236 162.60331 L-176.0174 162.6726 L-175.57645 163.01276 L-173.52291 166.22535 L-173.01268 167.51669 L-172.8489 167.86314 L-172.54654 168.83952 L-172.48355 169.70251 L-172.62213 170.49621 L-172.91819 171.13243 L-172.83 171.44739 L-172.63473 171.47889 L-172.16859 171.23322 L-171.81583 171.18282 L-171.37489 171.48518 L-171.16072 172.10881 L-171.17961 172.85841 L-171.40638 173.17967 L-171.75914 173.34975 L-172.23158 173.32455 L-172.90559 173.17967 L-173.41583 173.23636 L-173.6426 173.47573 L-173.63 174.03006 L-173.42213 174.33872 L-172.60323 175.53557 L-171.96071 176.03321 L-170.71977 176.78911 L-169.61741 176.75762 L-168.9182 176.42376 L-168.44576 176.471 L-168.28198 176.71982 L-168.21899 177.50722 L-167.68986 178.20013 L-167.58907 179.10722 L-167.42529 179.29619 L-166.90876 179.56076 L-166.27884 179.46627 L-165.88828 179.2584 L-165.54813 178.77336 L-165.28356 178.49619 L-164.53396 178.471 L-162.27254 179.16391 L-161.64262 179.14501 L-160.98121 178.93084 L-160.46467 178.91824 L-159.42531 179.56076 L-158.95287 179.62375 L-158.40484 179.45367 L-157.63003 179.00013 L-156.47728 177.98596 L-155.74027 177.57021 L-155.35602 177.24895 L-154.82689 176.40486 L-154.36075 176.1151 L-153.64894 176.14029 L-152.70406 176.19069 L-151.87256 176.28517 L-151.63319 176.39856 L-151.31194 176.78281 L-151.04737 177.72139 L-150.90249 178.05525 L-150.75761 178.38281 L-150.18438 179.15761 L-149.93241 179.81903 L-149.94476 180.3337 L-149.95131 180.60643 L-150.0458 181.31823 L-150.0458 182.82808 L-150.0458 182.97492 L-150.30406 183.52925 L-151.608 184.86469 L-152.3954 185.97544 L-153.1765 186.52137 L-154.38595 187.06311 L-155.36232 187.40956 L-157.35917 187.73712 L-157.94499 187.9072 "  stroke="#0070FF" fill="none" stroke-opacity="1" stroke-width="1" stroke-linecap="round" stroke-linejoin="round" stroke-miterlimit="10" />
</g>
</g>
<g clip-path="url(#cp_2)">
<g transform="matrix(4.1666667 0 0 -4.1666667 974.4075 826.77)">
<path d="M-64.975101 126.18134 L-62.871168 126.83645 L-62.474319 127.10102 L-62.102665 127.56086 L-62.090067 128.0333 L-62.738884 128.99708 L-62.719987 129.66479 L-62.398728 129.89157 L-61.806603 129.95456 L-61.453848 129.86637 L-61.182982 129.74039 L-60.830227 129.69629 L-60.118417 129.79708 L-59.554639 130.027 L-59.034955 130.47739 L-58.260154 131.44117 L-57.81921 131.69944 L-57.42866 131.61125 L-57.088502 131.25219 L-56.704252 130.72936 L-56.326299 130.32621 L-55.897953 129.96086 L-55.463308 130.02385 L-54.984569 130.32621 L-54.701106 130.71676 L-54.606618 131.14511 L-54.713704 131.66164 L-54.688507 132.48684 L-54.096383 134.12463 L-53.642839 134.98132 L-52.836542 135.54825 L-52.433394 136.05218 L-52.332607 136.91517 L-52.200323 137.38132 L-51.639694 137.80336 L-51.507093 138.01379 L-51.351409 138.2887 L-51.375128 138.69785 L-51.601899 139.17659 L-52.137332 139.70572 L-52.817645 140.06477 L-53.535754 140.44903 L-54.701106 140.91517 L-56.823937 142.54666 L-57.359368 143.11359 L-58.159366 144.35453 L-58.449129 145.14823 L-58.736696 146.216 L-58.719995 146.76712 L-58.266453 147.66161 L-58.165665 148.44901 L-58.228658 149.00334 L-58.675901 149.91672 L-59.084246 150.61091 L-59.242828 150.8805 L-59.299522 151.08838 L-59.407447 151.45532 L-59.488498 151.98916 L-59.459468 152.31874 L-59.381411 153.20491 L-59.753064 153.96711 L-60.515267 154.8112 L-61.019203 155.10097 "  stroke="#0070FF" fill="none" stroke-opacity="1" stroke-width="1" stroke-linecap="round" stroke-linejoin="round" stroke-miterlimit="10" />
</g>
</g>
<g clip-path="url(#cp_2)">
<g transform="matrix(4.1666667 0 0 -4.1666667 974.4075 826.77)">
<path d="M-166.14861 73.576192 L-165.93868 73.7153 L-165.10718 73.847584 L-163.65207 73.88538 L-160.35129 73.48853 L-159.56389 73.583018 L-158.77019 73.759396 L-156.06783 74.868054 L-155.23004 75.277503 L-154.78909 75.542068 L-154.50563 75.693249 L-153.2017 75.932619 L-152.29461 75.913722 L-151.28044 75.567266 L-150.11509 74.987739 L-149.41588 74.773566 L-147.96706 74.458606 L-146.98439 74.395615 L-145.99541 74.521599 L-143.55762 74.420811 L-143.11668 74.647583 L-142.1655 74.893251 L-141.53558 74.880653 L-140.67889 74.622385 L-140.28204 74.571992 L-139.7718 74.67278 L-139.25527 74.855456 L-137.57968 75.680651 L-137.34031 75.749943 L-136.16236 75.680651 L-134.82063 75.605061 L-134.31039 75.712148 L-133.86945 75.894824 L-130.06473 78.275921 L-129.59229 78.464898 L-129.03167 78.68537 L-128.28206 78.861747 L-126.85844 78.981432 L-126.22852 79.08222 L-125.23325 79.409778 L-124.52774 79.428675 L-123.19861 79.000329 L-122.37341 78.943637 L-121.42223 79.189305 L-121.02538 79.258597 L-119.54507 80.090091 L-117.24586 80.776704 L-116.45216 80.871193 L-115.89783 81.016074 L-115.10413 81.312137 L-114.17815 82.112135 L-113.37815 82.483787 L-112.39548 82.540481 L-112.07422 82.723157 L-110.70729 83.794021 L-109.75611 84.121579 L-109.15139 84.461736 L-108.71045 84.839688 L-108.18131 85.61449 L-107.29313 86.458582 L-106.6947 86.64126 L-105.9388 86.975117 L-105.61124 87.321573 L-105.164 88.014485 L-104.67896 88.398736 L-104.364 88.430232 L-103.65849 88.291649 L-103.18605 88.398736 L-102.26007 89.041254 L-101.69944 89.381412 L-100.17503 90.483771 L-99.277395 91.74991 L-98.782907 92.575106 L-98.297869 93.034948 L-97.088423 94.023922 L-96.760865 94.490062 L-96.420707 95.390848 L-96.130944 95.93258 L-95.570316 96.272736 L-94.940396 96.373524 L-94.663231 96.480609 L-94.537247 96.757774 L-94.449057 98.60344 L-94.165593 98.874306 L-93.567169 99.252258 L-92.653785 99.54202 L-92.175046 99.762493 L-91.608119 100.34202 L-91.12308 100.68218 L-90.291586 100.97824 L-90.008122 101.2428 L-89.762452 101.58926 L-89.642768 103.04438 L-89.415997 104.22233 L-89.409698 106.0302 L-89.592374 106.59083 L-89.567178 107.37823 L-89.403398 107.76248 L-88.6034 108.29791 L-88.313637 108.64436 L-88.13096 109.66484 L-87.916787 110.32625 L-87.551434 110.67271 L-86.915215 111.00657 L-84.074275 114.20026 L-83.072702 114.72939 L-83.066403 115.11994 L-83.274277 116.07112 L-83.192387 116.30419 L-82.14672 116.98451 L-81.560894 117.0097 L-81.088454 116.80183 L-80.697904 116.75143 L-80.225464 116.85852 L-80.023889 117.0097 L-79.696331 117.51364 L-79.400269 118.29474 L-79.356175 119.78765 L-79.456962 120.49946 L-79.375072 120.73253 L-79.009719 121.07899 L-78.770349 121.11048 L-77.724682 120.56875 L-77.290037 120.51836 L-76.332558 120.9656 L-75.822324 121.03489 L-75.305789 121.25536 L-75.06012 121.44434 L-74.562483 122.37662 L-73.951461 123.3089 L-73.220753 123.99552 L-72.345165 124.44906 L-72.023906 124.78921 L-71.519969 125.84118 L-71.526269 127.18291 L-71.19871 127.48527 L-70.600286 127.78763 L-69.919973 128.32307 L-69.516824 128.58763 L-68.924699 128.8081 L-67.979819 128.78291 L-67.784544 128.61913 L-67.519978 128.17818 L-67.375096 127.66165 L-67.003444 127.06323 L-66.575098 126.69787 L-65.800296 126.28212 L-64.975101 126.18134 "  stroke="#0070FF" fill="none" stroke-opacity="1" stroke-width="1" stroke-linecap="round" stroke-linejoin="round" stroke-miterlimit="10" />
</g>
</g>
<g clip-path="url(#cp_2)">
<g transform="matrix(4.1666667 0 0 -4.1666667 974.4075 826.77)">
<path d="M-75.085317 29.954758 L-74.858545 31.05082 L-74.367208 31.787825 L-73.680596 32.436644 L-73.006581 32.7768 L-71.053829 33.551602 L-70.530995 33.891758 L-70.291625 34.080734 L-69.806587 34.660261 L-68.660132 36.203564 L-68.200291 37.299626 L-67.979819 38.238207 L-68.105803 39.264977 L-68.080607 40.367336 L-67.822339 41.066548 L-67.822339 42.527962 L-68.105803 43.712211 L-68.477456 44.5878 L-69.674304 46.943701 L-70.524696 49.016138 L-70.789262 49.419286 L-71.053829 49.935821 L-72.112094 51.655502 L-72.256976 52.096446 L-72.427054 53.047625 L-72.641228 53.759435 L-72.943589 54.395654 L-73.088471 54.874393 L-73.17036 56.096438 L-73.403431 57.797223 L-73.523115 59.220842 L-73.819177 61.431861 L-73.762485 62.061781 L-73.636501 62.452331 L-73.384533 62.918472 L-73.145163 63.145243 L-71.375088 63.138944 L-70.423909 63.353117 L-70.140445 63.579888 L-69.567217 64.468076 L-68.786117 65.671222 L-68.326275 66.603504 L-68.061708 69.15468 L-67.998717 69.381451 L-67.89163 69.740505 L-67.425489 70.830267 L-67.3436 72.405067 L-67.10423 72.751523 L-66.896357 73.104278 L-66.045965 73.866481 L-64.082149 75.253169 L-63.242821 75.642856 L-62.361215 75.818397 L-61.819201 75.92632 L-59.362513 76.606633 L-58.921569 76.833405 L-58.719995 77.104271 L-58.505823 77.570411 L-58.455429 77.998757 L-58.543618 79.183006 L-58.751491 80.373555 L-58.732594 81.116861 L-58.486924 81.469617 L-57.8885 81.765678 L-57.208187 82.181426 L-56.968817 82.294811 L-56.94992 83.000322 L-56.855432 83.390872 L-56.534173 83.857013 L-56.326299 84.247564 L-56.351496 84.682208 L-57.157794 85.488506 L-57.26488 85.765671 L-57.302676 86.042836 L-57.283778 86.754645 L-57.157794 87.02551 L-56.40189 87.359368 L-56.275906 87.592439 L-56.293567 87.870615 L-56.301102 87.989289 L-56.628661 89.016058 L-57.044408 89.658577 L-57.466455 90.105819 L-57.65543 90.427079 L-57.674328 91.327864 L-57.894799 91.888493 L-58.234957 92.253847 L-58.934168 92.625499 L-60.691645 93.343608 L-61.819201 93.885339 L-62.197154 94.288488 L-62.342035 94.842818 L-62.29794 95.157778 L-61.447549 96.039665 L-60.981408 97.091632 L-60.81133 97.715252 L-60.710542 98.420763 L-60.72944 99.208163 L-60.830227 99.919973 L-60.81133 100.5121 L-60.483772 101.01603 L-60.194008 101.59556 L-60.09952 102.22548 L-60.162513 102.81761 L-60.72944 103.81918 L-60.868022 104.53099 L-60.956212 105.51996 L-61.170384 106.08689 L-61.705816 106.91838 L-62.083768 107.67429 L-62.184555 108.26641 L-62.058571 108.42389 L-61.182982 108.83334 L-60.937314 109.1798 L-60.849125 109.65224 L-61.000306 114.26325 L-61.775107 116.2097 L-62.22235 117.09159 L-62.864869 118.20655 L-63.085341 118.92466 L-63.32471 120.1908 L-63.658569 121.02859 L-64.968802 123.46638 L-65.258565 124.33567 L-65.208172 124.96559 L-65.189274 125.63331 L-64.975101 126.18134 "  stroke="#0070FF" fill="none" stroke-opacity="1" stroke-width="1" stroke-linecap="round" stroke-linejoin="round" stroke-miterlimit="10" />
</g>
</g>
<g clip-path="url(#cp_2)">
<g transform="matrix(4.1666667 0 0 -4.1666667 974.4075 826.77)">
<path d="M128.07018 3.7374876 L128.03239 4.254022 L128.18987 4.9217374 L128.15207 5.3941776 L127.40247 6.219373 L126.89223 6.5406321 L125.16625 7.0571665 L124.64972 7.4099219 L124.29799 8.2483055 L124.30326 8.7012573 L124.30326 9.0666118 L124.58043 10.206766 L124.54992 10.355909 L124.46704 10.761096 L124.07019 10.956371 L123.43735 11.007154 L122.99568 11.08029 L122.53948 11.43511 L121.99145 12.417786 L121.74917 13.042909 L121.16626 14.546915 L120.82124 15.286824 L120.35996 16.276046 L119.67965 17.26817 L119.13162 17.822499 L118.73477 18.017775 "  stroke="#0070FF" fill="none" stroke-opacity="1" stroke-width="1" stroke-linecap="round" stroke-linejoin="round" stroke-miterlimit="10" />
</g>
</g>
<g clip-path="url(#cp_2)">
<g transform="matrix(4.1666667 0 0 -4.1666667 974.4075 826.77)">
<path d="M131.35836 -3.0782462 L131.0434 -2.6499003 L130.81033 -2.0577754 L130.65285 -1.1884868 L130.58356 1.7658387 L130.2686 2.2382788 L129.95679 2.4965455 L129.32372 2.8304038 "  stroke="#0070FF" fill="none" stroke-opacity="1" stroke-width="1" stroke-linecap="round" stroke-linejoin="round" stroke-miterlimit="10" />
</g>
</g>
<g clip-path="url(#cp_2)">
<g transform="matrix(4.1666667 0 0 -4.1666667 974.4075 826.77)">
<path d="M-17.327952 -4.262496 L-16.269686 -4.3254874 L-15.683861 -4.2121027 L-15.394098 -4.1554093 L-14.638194 -3.8593474 L-13.8004 -3.3302138 L-13.145283 -2.442027 "  stroke="#0070FF" fill="none" stroke-opacity="1" stroke-width="1" stroke-linecap="round" stroke-linejoin="round" stroke-miterlimit="10" />
</g>
</g>
<g clip-path="url(#cp_2)">
<g transform="matrix(4.1666667 0 0 -4.1666667 974.4075 826.77)">
<path d="M-67.929426 -10.36642 L-66.94675 -10.511302 L-66.23494 -10.45461 L-62.890065 -10.542798 L-62.077469 -10.92075 L-61.686919 -11.122324 L-61.000306 -11.928623 L-60.534165 -12.33807 L-60.225504 -12.426259 L-59.356214 -12.445157 L-58.965664 -12.375865 L-58.486924 -12.117599 L-57.554643 -11.273505 L-56.87433 -10.857758 L-54.342051 -10.37272 L-53.308982 -10.082956 L-51.67749 -9.421541 L-50.927885 -9.3585486 L-48.351512 -10.095555 L-46.978287 -10.21524 L-45.353093 -9.7868944 L-44.43341 -9.3774468 L-43.87908 -9.27036 L-43.17357 -9.4089418 L-41.693258 -9.9191772 L-41.101133 -9.9380754 L-39.797198 -9.6546116 L-38.915311 -9.2451628 L-38.071218 -8.5963456 L-37.346809 -7.9097331 L-35.923191 -6.2089489 "  stroke="#0070FF" fill="none" stroke-opacity="1" stroke-width="1" stroke-linecap="round" stroke-linejoin="round" stroke-miterlimit="10" />
</g>
</g>
<g clip-path="url(#cp_2)">
<g transform="matrix(4.1666667 0 0 -4.1666667 974.4075 826.77)">
<path d="M7.6924703 -6.4609165 L8.0452257 -6.4672155 L9.0656964 -6.7695775 L9.7334107 -6.8262698 L11.194825 -6.5932004 L12.25939 -6.5806012 L15.900328 -7.305009 L17.191664 -7.6955596 L20.927089 -9.2073675 L21.941261 -9.5916191 L23.257794 -10.45461 L24.183776 -11.267206 L24.794798 -11.991614 L24.851491 -12.741219 L24.725508 -12.974289 L24.410547 -13.043581 L23.071967 -13.04988 L22.785354 -13.471927 L22.653071 -13.862476 L22.923936 -14.026256 L23.434171 -14.240429 L24.801098 -14.593184 L25.462513 -14.807356 L26.659361 -15.821528 L27.049912 -15.947512 L27.824714 -16.035701 L28.385343 -16.104992 L29.481403 -16.369559 L30.21841 -16.741211 L30.955415 -17.037273 L31.742816 -17.056171 L33.28612 -16.942786 "  stroke="#0070FF" fill="none" stroke-opacity="1" stroke-width="1" stroke-linecap="round" stroke-linejoin="round" stroke-miterlimit="10" />
</g>
</g>
<g clip-path="url(#cp_2)">
<g transform="matrix(4.1666667 0 0 -4.1666667 974.4075 826.77)">
<path d="M-73.473835 -10.876909 L-71.67115 -10.467208 L-70.247531 -10.385318 "  stroke="#0070FF" fill="none" stroke-opacity="1" stroke-width="1" stroke-linecap="round" stroke-linejoin="round" stroke-miterlimit="10" />
</g>
</g>
<g clip-path="url(#cp_2)">
<g transform="matrix(4.1666667 0 0 -4.1666667 974.4075 826.77)">
<path d="M33.28612 -16.942786 L34.262496 -17.163258 L35.660919 -17.868768 L36.385326 -18.127035 L37.336506 -18.467191 L38.741227 -18.895537 L39.793194 -19.437269 L40.22154 -19.645142 L41.273505 -20.029394 L42.060906 -20.048291 L42.615235 -19.903409 L42.854605 -19.714434 L43.213659 -19.569552 L43.742792 -19.02782 L44.026256 -18.605774 L44.4735 -18.064043 L44.914443 -17.799477 L46.016803 -17.906563 L46.287668 -18.032547 L47.112864 -18.095539 L47.465619 -18.145932 L48.177429 -17.925461 L49.695536 -17.21995 L51.390021 -17.024675 L52.101831 -17.043572 L52.567971 -17.251447 L52.958521 -17.421525 L53.267182 -17.667193 L53.613639 -17.950657 L54.23096 -18.240421 L54.942769 -18.259318 L55.497099 -18.120736 L56.253003 -17.704989 L56.630956 -16.930187 L56.876624 -16.577432 L57.430954 -16.35696 L57.985284 -16.375858 L58.6404 -16.860896 L59.377407 -17.276643 L59.692367 -17.282943 L60.523861 -17.068769 L60.958505 -17.043572 L61.588425 -17.138061 L62.319133 -17.591603 L63.04984 -18.435696 L64.108106 -19.960102 L64.259287 -20.161677 L65.525425 -21.497108 L66.577392 -21.919153 L67.21991 -22.133327 L68.536443 -22.064035 L68.95849 -22.064035 "  stroke="#0070FF" fill="none" stroke-opacity="1" stroke-width="1" stroke-linecap="round" stroke-linejoin="round" stroke-miterlimit="10" />
</g>
</g>
<g clip-path="url(#cp_2)">
<g transform="matrix(4.1666667 0 0 -4.1666667 974.4075 826.77)">
<path d="M82.772635 -23.556945 L83.0435 -24.111275 L83.434051 -24.741195 L83.824602 -25.88135 L84.177357 -26.555365 L84.687592 -27.0656 L85.160033 -27.342765 L85.909636 -27.342765 L86.382076 -27.229379 L86.734832 -27.034104 L88.435616 -26.051428 L89.500181 -25.068753 L90.092306 -24.760093 L91.150571 -24.797888 L91.54742 -24.722298 L92.095451 -24.331747 L92.964741 -24.249858 L93.871826 -23.978992 L94.262376 -23.783717 L94.8608 -22.605766 L95.213556 -22.013642 L96.51119 -21.660887 L96.945835 -21.660887 L97.336386 -21.818367 L97.771031 -21.900256 L98.363155 -21.704981 L99.150556 -21.704981 L99.698585 -22.139626 L100.32851 -22.378995 L100.64347 -22.58057 L101.1537 -22.73805 L101.78362 -23.563245 L102.21827 -23.84041 L102.41354 -23.764819 L102.60882 -23.36797 L102.96787 -23.015215 L104.34739 -21.956949 L104.78204 -21.881358 L104.98361 -21.919153 L105.36787 -22.001043 L106.39464 -22.001043 L107.33952 -22.082932 L107.81196 -22.007342 L108.08912 -21.572697 L109.34896 -20.356952 L109.8592 -20.319157 L110.41352 -20.394747 L110.99935 -20.634117 L111.55368 -21.068762 L111.91588 -21.55065 L112.45447 -22.095531 L113.12218 -22.567972 L113.67021 -23.197891 L114.5773 -23.323876 L114.93005 -23.638835 L115.3584 -24.388439 L115.67336 -24.741195 L116.22769 -24.823084 L116.61824 -24.627809 L117.56942 -23.9223 L118.19934 -23.9223 L119.45288 -24.394739 L120.90799 -24.715999 L121.18516 -24.634109 L121.42453 -24.401039 L121.46232 -23.771119 L121.6198 -23.418363 L121.82138 -23.223088 L122.17413 -23.027813 L123.13476 -23.336474 L124.0261 -23.342773 L124.18358 -23.342773 L124.65602 -22.952222 L124.8135 -22.561671 L124.70011 -21.767972 L124.66232 -20.942778 L124.89539 -20.356952 L125.44971 -19.682938 L126.28121 -18.977427 L126.75365 -18.504987 L127.06861 -17.956956 L127.06861 -17.012077 L126.71585 -16.457747 L126.67806 -16.224677 L126.99302 -15.512867 L127.47176 -15.242001 L128.10168 -15.242001 L128.96467 -15.796331 L131.00561 -16.74751 L131.99458 -16.835699 L132.15206 -16.74751 L132.46702 -16.67192 L132.97726 -16.079795 L133.68907 -14.977436 L134.08592 -14.07665 L134.2434 -13.289249 L134.13001 -12.224684 L133.81505 -11.512875 L133.54419 -10.76327 L133.54419 -9.9758707 L133.85915 -8.8357151 L133.97883 -8.0105197 L133.94734 -7.2609147 L133.43395 -6.6120975 "  stroke="#0070FF" fill="none" stroke-opacity="1" stroke-width="1" stroke-linecap="round" stroke-linejoin="round" stroke-miterlimit="10" />
</g>
</g>
<g clip-path="url(#cp_2)">
<g transform="matrix(4.1666667 0 0 -4.1666667 974.4075 826.77)">
<path d="M10.249945 -28.816778 L12.360177 -28.048275 L13.361751 -27.443552 L13.960175 -27.14749 L14.911354 -26.895521 L16.66883 -25.956941 L17.260955 -25.698673 L17.821584 -25.553792 L18.294024 -25.327021 L19.220006 -24.684503 L20.423153 -23.928599 L20.977483 -23.670331 L22.086142 -23.462457 L23.188502 -23.487655 L25.298734 -24.098677 L25.96645 -24.073479 L26.961723 -23.745921 L27.831013 -23.531749 L29.412112 -23.493954 L30.042031 -23.273481 L30.602661 -22.977419 L31.131794 -22.479782 L31.579037 -21.742776 L31.79321 -21.276635 L32.051477 -20.29396 L32.391634 -19.481363 L33.002656 -18.630971 L33.223129 -17.767981 L33.28612 -16.942786 "  stroke="#0070FF" fill="none" stroke-opacity="1" stroke-width="1" stroke-linecap="round" stroke-linejoin="round" stroke-miterlimit="10" />
</g>
</g>
<g clip-path="url(#cp_2)">
<g transform="matrix(4.1666667 0 0 -4.1666667 974.4075 826.77)">
<path d="M-7.230335 -71.273385 L-7.3185236 -70.914331 L-7.1940647 -70.206205 L-7.1358463 -69.874963 L-7.0476577 -67.991503 L-6.7326977 -66.542686 L-6.7012014 -65.440326 L-6.8397844 -64.564737 L-7.1736415 -63.846628 L-7.3122245 -63.178913 L-7.091752 -62.391514 L-6.8019891 -61.654507 L-6.2224623 -60.684431 L-5.0823067 -59.141126 L-4.6161668 -58.089159 L-4.4460875 -57.421445 L-4.4775838 -57.182076 L-4.496482 -56.51436 L-4.7295525 -54.851371 L-5.2523859 -53.818302 L-5.1578972 -53.188382 L-5.1830944 -52.634053 L-5.567346 -52.193109 L-5.9075022 -51.87185 L-6.0586832 -51.468701 L-6.0712812 -50.60571 L-6.2980528 -50.045081 L-7.091752 -48.923824 L-7.3563188 -48.363195 L-8.0177341 -46.656112 L-8.1563171 -46.114381 L-8.4460799 -44.986824 L-8.1248208 -44.879737 L-7.9547427 -44.212022 L-7.8980493 -43.663991 L-7.7657665 -43.191552 L-7.3689168 -42.88919 L-6.6193119 -42.908087 L-6.0649822 -42.845096 L-5.8634079 -42.649821 L-5.5358498 -42.070294 L-5.4413611 -41.484469 L-5.3153773 -41.251399 L-4.8366381 -40.949037 L-3.6460893 -40.583683 L-3.1232559 -40.205731 L-2.4744386 -39.475024 L-2.3610529 -38.215184 L-2.1972738 -37.982113 L-1.3657793 -37.84983 L-0.093340945 -37.408886 "  stroke="#0070FF" fill="none" stroke-opacity="1" stroke-width="1" stroke-linecap="round" stroke-linejoin="round" stroke-miterlimit="10" />
</g>
</g>
<g clip-path="url(#cp_2)">
<g transform="matrix(4.1666667 0 0 -4.1666667 974.4075 826.77)">
<path d="M153.57412 -173.74338 L153.9032 -172.43224 L153.27958 -171.09051 L154.01029 -167.39288 L154.01659 -165.6606 L154.25596 -164.95509 L155.67958 -163.46218 L157.02131 -162.60549 L157.65752 -161.7425 L157.97878 -160.56455 L158.45122 -160.09211 L161.06539 -156.87951 L161.30476 -156.1677 L160.83862 -155.61967 L160.76303 -155.14723 L161.63232 -154.28424 L162.5772 -153.66062 L163.60397 -153.42755 L165.33625 -153.67322 L166.59609 -153.67952 L166.81062 -153.61945 L167.69845 -153.37086 L169.27325 -153.13779 L171.72364 -151.34252 L172.67482 -149.9315 L173.78348 -148.82914 L175.67954 -147.34252 L176.46694 -147.03386 L177.65119 -147.35512 L178.12363 -147.19764 L178.91732 -146.10158 L179.23858 -144.92363 L179.16299 -143.26694 L178.85433 -142.0071 L178.85433 -141.71104 L178.86063 -141.30159 L179.41496 -140.67167 L180.27795 -140.59608 L180.75039 -140.83545 L181.22283 -140.91734 L182.01653 -140.4512 L183.35826 -138.95829 L184.22755 -138.25278 L185.56298 -138.81341 L186.27479 -138.97089 L187.29526 -138.50475 L187.93148 -138.42916 L188.5551 -138.9079 L188.70628 -140.32522 L188.93935 -141.11262 L189.72045 -141.90632 L192.69997 -144.3567 L193.07793 -144.95513 L193.79603 -146.09528 L195.6795 -146.81339 L197.01493 -148.16142 L197.2417 -149.18819 L198.26217 -150.29055 L198.72831 -151.24173 L199.5913 -152.11102 L199.74248 -153.44645 L200.34452 -154.39378 M211.88597 -149.61934 L211.88734 -149.41496 L212.05112 -147.92205 L212.37238 -147.44961 L213.55033 -147.5315 L213.39915 -146.51103 L213.95348 -146.03859 L214.42591 -145.88741 "  stroke="#0070FF" fill="none" stroke-opacity="1" stroke-width="1" stroke-linecap="round" stroke-linejoin="round" stroke-miterlimit="10" />
</g>
</g>
</g>
<!-- Begin_Label-->
<clipPath id="cp_3">
<path d="M1948.815 0 L9.1789909e-14 4.5474735e-13 L9.1789909e-14 1653.54 L1948.815 1653.54 Z " />
</clipPath>
<g clip-path="url(#cp_3)">
<g id="EmbdFile__1" transform="matrix(1 0 0 1 9.1789909e-14 4.5474735e-13)">
<g>
<g transform="scale(1,1)">
</g>
</g>
</g>
</g>
<!-- End_Label-->
</g>
</g>
</svg>
